<?xml version="1.0"?><svg xmlns="http://www.w3.org/2000/svg" xmlns:xlink="http://www.w3.org/1999/xlink" width="1440" height="810" viewBox="0 0 1440 810">
<defs>
<g>
<g id="glyph-0-0">
<path d="M 1.15625 0 L 1.15625 -1.890625 L 9.53125 -13.0625 L 1.625 -13.0625 L 1.625 -14.984375 L 12.484375 -14.984375 L 12.484375 -13.09375 L 4.09375 -1.921875 L 12.78125 -1.921875 L 12.78125 0 Z M 1.15625 0 "></path>
</g>
<g id="glyph-0-1">
<path d="M 3.828125 -6.96875 C 3.828125 -5.25 4.179688 -3.921875 4.890625 -2.984375 C 5.597656 -2.054688 6.640625 -1.59375 8.015625 -1.59375 C 9.085938 -1.59375 9.945312 -1.804688 10.59375 -2.234375 C 11.25 -2.671875 11.691406 -3.222656 11.921875 -3.890625 L 14.125 -3.265625 C 13.226562 -0.898438 11.191406 0.28125 8.015625 0.28125 C 5.796875 0.28125 4.101562 -0.378906 2.9375 -1.703125 C 1.78125 -3.023438 1.203125 -4.988281 1.203125 -7.59375 C 1.203125 -10.070312 1.78125 -11.96875 2.9375 -13.28125 C 4.101562 -14.601562 5.757812 -15.265625 7.90625 -15.265625 C 12.3125 -15.265625 14.515625 -12.609375 14.515625 -7.296875 L 14.515625 -6.96875 Z M 11.9375 -8.875 C 11.800781 -10.457031 11.398438 -11.609375 10.734375 -12.328125 C 10.066406 -13.054688 9.113281 -13.421875 7.875 -13.421875 C 6.65625 -13.421875 5.691406 -13.015625 4.984375 -12.203125 C 4.285156 -11.398438 3.910156 -10.289062 3.859375 -8.875 Z M 11.9375 -8.875 "></path>
</g>
<g id="glyph-0-2">
<path d="M 14.59375 -7.515625 C 14.59375 -4.890625 14.015625 -2.929688 12.859375 -1.640625 C 11.703125 -0.359375 10.023438 0.28125 7.828125 0.28125 C 5.640625 0.28125 3.984375 -0.382812 2.859375 -1.71875 C 1.742188 -3.0625 1.1875 -4.992188 1.1875 -7.515625 C 1.1875 -12.679688 3.425781 -15.265625 7.90625 -15.265625 C 10.195312 -15.265625 11.882812 -14.632812 12.96875 -13.375 C 14.050781 -12.113281 14.59375 -10.160156 14.59375 -7.515625 Z M 11.96875 -7.515625 C 11.96875 -9.578125 11.660156 -11.078125 11.046875 -12.015625 C 10.429688 -12.953125 9.398438 -13.421875 7.953125 -13.421875 C 6.492188 -13.421875 5.4375 -12.941406 4.78125 -11.984375 C 4.132812 -11.035156 3.8125 -9.546875 3.8125 -7.515625 C 3.8125 -5.535156 4.128906 -4.046875 4.765625 -3.046875 C 5.410156 -2.054688 6.421875 -1.5625 7.796875 -1.5625 C 9.296875 -1.5625 10.363281 -2.039062 11 -3 C 11.644531 -3.96875 11.96875 -5.472656 11.96875 -7.515625 Z M 11.96875 -7.515625 "></path>
</g>
<g id="glyph-0-3">
<path d="M 10.640625 0 L 10.640625 -9.5 C 10.640625 -10.957031 10.441406 -11.960938 10.046875 -12.515625 C 9.648438 -13.066406 8.929688 -13.34375 7.890625 -13.34375 C 6.828125 -13.34375 5.988281 -12.9375 5.375 -12.125 C 4.757812 -11.3125 4.453125 -10.164062 4.453125 -8.6875 L 4.453125 0 L 1.96875 0 L 1.96875 -11.796875 C 1.96875 -13.535156 1.941406 -14.597656 1.890625 -14.984375 L 4.234375 -14.984375 C 4.242188 -14.941406 4.253906 -14.816406 4.265625 -14.609375 C 4.273438 -14.410156 4.285156 -14.175781 4.296875 -13.90625 C 4.316406 -13.644531 4.332031 -13.148438 4.34375 -12.421875 L 4.390625 -12.421875 C 4.929688 -13.484375 5.546875 -14.222656 6.234375 -14.640625 C 6.929688 -15.054688 7.773438 -15.265625 8.765625 -15.265625 C 9.898438 -15.265625 10.796875 -15.035156 11.453125 -14.578125 C 12.117188 -14.128906 12.582031 -13.410156 12.84375 -12.421875 L 12.890625 -12.421875 C 13.398438 -13.429688 14.019531 -14.15625 14.75 -14.59375 C 15.488281 -15.039062 16.378906 -15.265625 17.421875 -15.265625 C 18.941406 -15.265625 20.046875 -14.851562 20.734375 -14.03125 C 21.421875 -13.207031 21.765625 -11.859375 21.765625 -9.984375 L 21.765625 0 L 19.296875 0 L 19.296875 -9.5 C 19.296875 -10.957031 19.097656 -11.960938 18.703125 -12.515625 C 18.304688 -13.066406 17.59375 -13.34375 16.5625 -13.34375 C 15.46875 -13.34375 14.617188 -12.9375 14.015625 -12.125 C 13.410156 -11.320312 13.109375 -10.175781 13.109375 -8.6875 L 13.109375 0 Z M 10.640625 0 "></path>
</g>
<g id="glyph-1-0">
<path d="M 8.3125 -2.609375 C 8.3125 -1.722656 7.972656 -1.035156 7.296875 -0.546875 C 6.628906 -0.0664062 5.6875 0.171875 4.46875 0.171875 C 3.289062 0.171875 2.378906 -0.0195312 1.734375 -0.40625 C 1.097656 -0.789062 0.6875 -1.394531 0.5 -2.21875 L 1.890625 -2.5 C 2.023438 -1.988281 2.300781 -1.613281 2.71875 -1.375 C 3.144531 -1.144531 3.726562 -1.03125 4.46875 -1.03125 C 5.269531 -1.03125 5.851562 -1.148438 6.21875 -1.390625 C 6.59375 -1.640625 6.78125 -2.007812 6.78125 -2.5 C 6.78125 -2.863281 6.648438 -3.160156 6.390625 -3.390625 C 6.140625 -3.628906 5.726562 -3.828125 5.15625 -3.984375 L 4.03125 -4.28125 C 3.125 -4.507812 2.476562 -4.734375 2.09375 -4.953125 C 1.707031 -5.179688 1.40625 -5.457031 1.1875 -5.78125 C 0.976562 -6.101562 0.875 -6.5 0.875 -6.96875 C 0.875 -7.832031 1.179688 -8.488281 1.796875 -8.9375 C 2.410156 -9.394531 3.304688 -9.625 4.484375 -9.625 C 5.535156 -9.625 6.367188 -9.4375 6.984375 -9.0625 C 7.597656 -8.695312 7.984375 -8.109375 8.140625 -7.296875 L 6.734375 -7.125 C 6.640625 -7.539062 6.398438 -7.859375 6.015625 -8.078125 C 5.640625 -8.304688 5.128906 -8.421875 4.484375 -8.421875 C 3.773438 -8.421875 3.25 -8.3125 2.90625 -8.09375 C 2.570312 -7.882812 2.40625 -7.5625 2.40625 -7.125 C 2.40625 -6.851562 2.472656 -6.628906 2.609375 -6.453125 C 2.753906 -6.285156 2.960938 -6.140625 3.234375 -6.015625 C 3.515625 -5.890625 4.09375 -5.71875 4.96875 -5.5 C 5.800781 -5.289062 6.398438 -5.097656 6.765625 -4.921875 C 7.140625 -4.742188 7.429688 -4.546875 7.640625 -4.328125 C 7.859375 -4.117188 8.023438 -3.867188 8.140625 -3.578125 C 8.253906 -3.296875 8.3125 -2.972656 8.3125 -2.609375 Z M 8.3125 -2.609375 "></path>
</g>
<g id="glyph-1-1">
<path d="M 1.203125 0 L 1.203125 -9.46875 L 2.78125 -9.46875 L 2.78125 0 Z M 1.203125 -11.484375 L 1.203125 -12.984375 L 2.78125 -12.984375 L 2.78125 -11.484375 Z M 1.203125 -11.484375 "></path>
</g>
<g id="glyph-1-2">
<path d="M 4.84375 -0.0625 C 4.320312 0.0703125 3.789062 0.140625 3.25 0.140625 C 1.988281 0.140625 1.359375 -0.570312 1.359375 -2 L 1.359375 -8.328125 L 0.265625 -8.328125 L 0.265625 -9.46875 L 1.421875 -9.46875 L 1.890625 -11.59375 L 2.9375 -11.59375 L 2.9375 -9.46875 L 4.6875 -9.46875 L 4.6875 -8.328125 L 2.9375 -8.328125 L 2.9375 -2.34375 C 2.9375 -1.882812 3.007812 -1.5625 3.15625 -1.375 C 3.3125 -1.195312 3.570312 -1.109375 3.9375 -1.109375 C 4.144531 -1.109375 4.445312 -1.148438 4.84375 -1.234375 Z M 4.84375 -0.0625 "></path>
</g>
<g id="glyph-1-3">
<path d="M 2.421875 -4.40625 C 2.421875 -3.320312 2.644531 -2.484375 3.09375 -1.890625 C 3.539062 -1.296875 4.195312 -1 5.0625 -1 C 5.738281 -1 6.28125 -1.132812 6.6875 -1.40625 C 7.101562 -1.6875 7.382812 -2.035156 7.53125 -2.453125 L 8.921875 -2.0625 C 8.347656 -0.570312 7.0625 0.171875 5.0625 0.171875 C 3.65625 0.171875 2.585938 -0.242188 1.859375 -1.078125 C 1.128906 -1.910156 0.765625 -3.148438 0.765625 -4.796875 C 0.765625 -6.359375 1.128906 -7.554688 1.859375 -8.390625 C 2.585938 -9.222656 3.632812 -9.640625 5 -9.640625 C 7.78125 -9.640625 9.171875 -7.960938 9.171875 -4.609375 L 9.171875 -4.40625 Z M 7.546875 -5.609375 C 7.453125 -6.609375 7.195312 -7.335938 6.78125 -7.796875 C 6.363281 -8.253906 5.757812 -8.484375 4.96875 -8.484375 C 4.207031 -8.484375 3.601562 -8.226562 3.15625 -7.71875 C 2.707031 -7.207031 2.46875 -6.503906 2.4375 -5.609375 Z M 7.546875 -5.609375 "></path>
</g>
<g id="glyph-1-4">
<path d="M 6.71875 0 L 6.71875 -6 C 6.71875 -6.914062 6.59375 -7.546875 6.34375 -7.890625 C 6.09375 -8.242188 5.640625 -8.421875 4.984375 -8.421875 C 4.316406 -8.421875 3.785156 -8.164062 3.390625 -7.65625 C 3.003906 -7.144531 2.8125 -6.421875 2.8125 -5.484375 L 2.8125 0 L 1.25 0 L 1.25 -7.453125 C 1.25 -8.546875 1.226562 -9.21875 1.1875 -9.46875 L 2.671875 -9.46875 C 2.679688 -9.4375 2.6875 -9.359375 2.6875 -9.234375 C 2.695312 -9.109375 2.707031 -8.960938 2.71875 -8.796875 C 2.726562 -8.628906 2.738281 -8.3125 2.75 -7.84375 L 2.78125 -7.84375 C 3.113281 -8.519531 3.5 -8.988281 3.9375 -9.25 C 4.375 -9.507812 4.910156 -9.640625 5.546875 -9.640625 C 6.253906 -9.640625 6.816406 -9.492188 7.234375 -9.203125 C 7.648438 -8.921875 7.941406 -8.46875 8.109375 -7.84375 L 8.140625 -7.84375 C 8.460938 -8.476562 8.851562 -8.9375 9.3125 -9.21875 C 9.78125 -9.5 10.347656 -9.640625 11.015625 -9.640625 C 11.960938 -9.640625 12.65625 -9.378906 13.09375 -8.859375 C 13.53125 -8.335938 13.75 -7.488281 13.75 -6.3125 L 13.75 0 L 12.1875 0 L 12.1875 -6 C 12.1875 -6.914062 12.0625 -7.546875 11.8125 -7.890625 C 11.5625 -8.242188 11.109375 -8.421875 10.453125 -8.421875 C 9.765625 -8.421875 9.226562 -8.164062 8.84375 -7.65625 C 8.46875 -7.144531 8.28125 -6.421875 8.28125 -5.484375 L 8.28125 0 Z M 6.71875 0 "></path>
</g>
<g id="glyph-1-5">
<path d="M 3.625 0.171875 C 2.675781 0.171875 1.960938 -0.078125 1.484375 -0.578125 C 1.003906 -1.078125 0.765625 -1.765625 0.765625 -2.640625 C 0.765625 -3.617188 1.082031 -4.367188 1.71875 -4.890625 C 2.363281 -5.421875 3.40625 -5.703125 4.84375 -5.734375 L 6.96875 -5.78125 L 6.96875 -6.296875 C 6.96875 -7.066406 6.804688 -7.613281 6.484375 -7.9375 C 6.160156 -8.269531 5.644531 -8.4375 4.9375 -8.4375 C 4.238281 -8.4375 3.726562 -8.316406 3.40625 -8.078125 C 3.082031 -7.847656 2.890625 -7.46875 2.828125 -6.9375 L 1.1875 -7.09375 C 1.445312 -8.789062 2.710938 -9.640625 4.984375 -9.640625 C 6.171875 -9.640625 7.0625 -9.363281 7.65625 -8.8125 C 8.257812 -8.269531 8.5625 -7.484375 8.5625 -6.453125 L 8.5625 -2.375 C 8.5625 -1.914062 8.625 -1.566406 8.75 -1.328125 C 8.875 -1.085938 9.109375 -0.96875 9.453125 -0.96875 C 9.597656 -0.96875 9.769531 -0.988281 9.96875 -1.03125 L 9.96875 -0.046875 C 9.570312 0.046875 9.164062 0.09375 8.75 0.09375 C 8.164062 0.09375 7.738281 -0.0546875 7.46875 -0.359375 C 7.207031 -0.671875 7.0625 -1.15625 7.03125 -1.8125 L 6.96875 -1.8125 C 6.570312 -1.082031 6.101562 -0.566406 5.5625 -0.265625 C 5.03125 0.0234375 4.382812 0.171875 3.625 0.171875 Z M 3.984375 -1 C 4.554688 -1 5.066406 -1.128906 5.515625 -1.390625 C 5.972656 -1.660156 6.328125 -2.023438 6.578125 -2.484375 C 6.835938 -2.941406 6.96875 -3.410156 6.96875 -3.890625 L 6.96875 -4.671875 L 5.25 -4.640625 C 4.507812 -4.628906 3.945312 -4.550781 3.5625 -4.40625 C 3.1875 -4.269531 2.894531 -4.054688 2.6875 -3.765625 C 2.476562 -3.472656 2.375 -3.085938 2.375 -2.609375 C 2.375 -2.097656 2.515625 -1.703125 2.796875 -1.421875 C 3.078125 -1.140625 3.472656 -1 3.984375 -1 Z M 3.984375 -1 "></path>
</g>
<g id="glyph-1-6">
</g>
<g id="glyph-1-7">
<path d="M 7.1875 -1.515625 C 6.894531 -0.910156 6.503906 -0.476562 6.015625 -0.21875 C 5.535156 0.0390625 4.941406 0.171875 4.234375 0.171875 C 3.035156 0.171875 2.15625 -0.226562 1.59375 -1.03125 C 1.03125 -1.832031 0.75 -3.050781 0.75 -4.6875 C 0.75 -7.988281 1.910156 -9.640625 4.234375 -9.640625 C 4.953125 -9.640625 5.550781 -9.507812 6.03125 -9.25 C 6.507812 -8.988281 6.894531 -8.570312 7.1875 -8 L 7.203125 -8 L 7.1875 -9.0625 L 7.1875 -12.984375 L 8.765625 -12.984375 L 8.765625 -1.953125 C 8.765625 -0.960938 8.78125 -0.3125 8.8125 0 L 7.3125 0 C 7.289062 -0.09375 7.269531 -0.304688 7.25 -0.640625 C 7.226562 -0.984375 7.21875 -1.273438 7.21875 -1.515625 Z M 2.40625 -4.75 C 2.40625 -3.414062 2.578125 -2.460938 2.921875 -1.890625 C 3.273438 -1.328125 3.847656 -1.046875 4.640625 -1.046875 C 5.535156 -1.046875 6.179688 -1.351562 6.578125 -1.96875 C 6.984375 -2.582031 7.1875 -3.539062 7.1875 -4.84375 C 7.1875 -6.101562 6.984375 -7.023438 6.578125 -7.609375 C 6.179688 -8.191406 5.539062 -8.484375 4.65625 -8.484375 C 3.863281 -8.484375 3.289062 -8.1875 2.9375 -7.59375 C 2.582031 -7.007812 2.40625 -6.0625 2.40625 -4.75 Z M 2.40625 -4.75 "></path>
</g>
<g id="glyph-1-8">
<path d="M 0.796875 -4.0625 L 0.796875 -5.453125 L 5.171875 -5.453125 L 5.171875 -4.0625 Z M 0.796875 -4.0625 "></path>
</g>
<g id="glyph-1-9">
<path d="M 1.203125 0 L 1.203125 -12.984375 L 2.78125 -12.984375 L 2.78125 0 Z M 1.203125 0 "></path>
</g>
<g id="glyph-1-10">
<path d="M 1.25 0 L 1.25 -7.265625 C 1.25 -7.929688 1.226562 -8.664062 1.1875 -9.46875 L 2.671875 -9.46875 C 2.722656 -8.394531 2.75 -7.75 2.75 -7.53125 L 2.78125 -7.53125 C 3.03125 -8.34375 3.316406 -8.894531 3.640625 -9.1875 C 3.972656 -9.488281 4.4375 -9.640625 5.03125 -9.640625 C 5.238281 -9.640625 5.453125 -9.613281 5.671875 -9.5625 L 5.671875 -8.109375 C 5.460938 -8.171875 5.179688 -8.203125 4.828125 -8.203125 C 4.171875 -8.203125 3.671875 -7.921875 3.328125 -7.359375 C 2.984375 -6.796875 2.8125 -5.988281 2.8125 -4.9375 L 2.8125 0 Z M 1.25 0 "></path>
</g>
<g id="glyph-1-11">
<path d="M 7.140625 0 L 3.9375 -4.328125 L 2.78125 -3.375 L 2.78125 0 L 1.203125 0 L 1.203125 -12.984375 L 2.78125 -12.984375 L 2.78125 -4.875 L 6.9375 -9.46875 L 8.78125 -9.46875 L 4.9375 -5.40625 L 8.984375 0 Z M 7.140625 0 "></path>
</g>
<g id="glyph-1-12">
<path d="M 7.21875 0 L 7.21875 -6 C 7.21875 -6.625 7.15625 -7.109375 7.03125 -7.453125 C 6.914062 -7.796875 6.722656 -8.039062 6.453125 -8.1875 C 6.179688 -8.34375 5.785156 -8.421875 5.265625 -8.421875 C 4.503906 -8.421875 3.90625 -8.160156 3.46875 -7.640625 C 3.03125 -7.128906 2.8125 -6.410156 2.8125 -5.484375 L 2.8125 0 L 1.25 0 L 1.25 -7.453125 C 1.25 -8.546875 1.226562 -9.21875 1.1875 -9.46875 L 2.671875 -9.46875 C 2.679688 -9.4375 2.6875 -9.359375 2.6875 -9.234375 C 2.695312 -9.109375 2.707031 -8.960938 2.71875 -8.796875 C 2.726562 -8.628906 2.738281 -8.3125 2.75 -7.84375 L 2.78125 -7.84375 C 3.132812 -8.5 3.550781 -8.960938 4.03125 -9.234375 C 4.507812 -9.503906 5.097656 -9.640625 5.796875 -9.640625 C 6.835938 -9.640625 7.597656 -9.378906 8.078125 -8.859375 C 8.554688 -8.347656 8.796875 -7.5 8.796875 -6.3125 L 8.796875 0 Z M 7.21875 0 "></path>
</g>
<g id="glyph-1-13">
<path d="M 4.796875 3.71875 C 3.765625 3.71875 2.941406 3.515625 2.328125 3.109375 C 1.710938 2.703125 1.316406 2.125 1.140625 1.375 L 2.734375 1.15625 C 2.835938 1.59375 3.066406 1.925781 3.421875 2.15625 C 3.785156 2.394531 4.257812 2.515625 4.84375 2.515625 C 6.40625 2.515625 7.1875 1.597656 7.1875 -0.234375 L 7.1875 -1.765625 L 7.171875 -1.765625 C 6.878906 -1.148438 6.472656 -0.691406 5.953125 -0.390625 C 5.429688 -0.0859375 4.820312 0.0625 4.125 0.0625 C 2.96875 0.0625 2.113281 -0.316406 1.5625 -1.078125 C 1.019531 -1.847656 0.75 -3.0625 0.75 -4.71875 C 0.75 -6.394531 1.039062 -7.628906 1.625 -8.421875 C 2.21875 -9.222656 3.113281 -9.625 4.3125 -9.625 C 4.976562 -9.625 5.554688 -9.46875 6.046875 -9.15625 C 6.546875 -8.851562 6.925781 -8.414062 7.1875 -7.84375 L 7.203125 -7.84375 C 7.203125 -8.019531 7.210938 -8.320312 7.234375 -8.75 C 7.265625 -9.1875 7.289062 -9.425781 7.3125 -9.46875 L 8.8125 -9.46875 C 8.78125 -9.15625 8.765625 -8.503906 8.765625 -7.515625 L 8.765625 -0.265625 C 8.765625 2.390625 7.441406 3.71875 4.796875 3.71875 Z M 7.1875 -4.734375 C 7.1875 -5.503906 7.082031 -6.164062 6.875 -6.71875 C 6.664062 -7.28125 6.367188 -7.707031 5.984375 -8 C 5.609375 -8.289062 5.175781 -8.4375 4.6875 -8.4375 C 3.882812 -8.4375 3.296875 -8.144531 2.921875 -7.5625 C 2.554688 -6.976562 2.375 -6.035156 2.375 -4.734375 C 2.375 -3.441406 2.546875 -2.507812 2.890625 -1.9375 C 3.234375 -1.375 3.828125 -1.09375 4.671875 -1.09375 C 5.160156 -1.09375 5.597656 -1.238281 5.984375 -1.53125 C 6.367188 -1.820312 6.664062 -2.238281 6.875 -2.78125 C 7.082031 -3.332031 7.1875 -3.984375 7.1875 -4.734375 Z M 7.1875 -4.734375 "></path>
</g>
<g id="glyph-2-0">
<path d="M 30.03125 -48.3125 C 24.113281 -48.3125 19.507812 -46.410156 16.21875 -42.609375 C 12.9375 -38.804688 11.296875 -33.59375 11.296875 -26.96875 C 11.296875 -20.414062 13.007812 -15.148438 16.4375 -11.171875 C 19.863281 -7.191406 24.5 -5.203125 30.34375 -5.203125 C 37.820312 -5.203125 43.445312 -8.90625 47.21875 -16.3125 L 53.140625 -13.34375 C 50.929688 -8.75 47.835938 -5.25 43.859375 -2.84375 C 39.878906 -0.4375 35.257812 0.765625 30 0.765625 C 24.613281 0.765625 19.953125 -0.351562 16.015625 -2.59375 C 12.085938 -4.832031 9.09375 -8.03125 7.03125 -12.1875 C 4.96875 -16.351562 3.9375 -21.28125 3.9375 -26.96875 C 3.9375 -35.488281 6.238281 -42.160156 10.84375 -46.984375 C 15.445312 -51.816406 21.820312 -54.234375 29.96875 -54.234375 C 35.65625 -54.234375 40.40625 -53.117188 44.21875 -50.890625 C 48.039062 -48.671875 50.847656 -45.375 52.640625 -41 L 45.78125 -38.71875 C 44.539062 -41.832031 42.546875 -44.207031 39.796875 -45.84375 C 37.054688 -47.488281 33.800781 -48.3125 30.03125 -48.3125 Z M 30.03125 -48.3125 "></path>
</g>
<g id="glyph-2-1">
<path d="M 39.9375 -20.5625 C 39.9375 -13.375 38.351562 -8.019531 35.1875 -4.5 C 32.03125 -0.988281 27.441406 0.765625 21.421875 0.765625 C 15.429688 0.765625 10.90625 -1.0625 7.84375 -4.71875 C 4.789062 -8.375 3.265625 -13.65625 3.265625 -20.5625 C 3.265625 -34.71875 9.394531 -41.796875 21.65625 -41.796875 C 27.925781 -41.796875 32.539062 -40.066406 35.5 -36.609375 C 38.457031 -33.160156 39.9375 -27.8125 39.9375 -20.5625 Z M 32.765625 -20.5625 C 32.765625 -26.21875 31.921875 -30.328125 30.234375 -32.890625 C 28.554688 -35.460938 25.734375 -36.75 21.765625 -36.75 C 17.773438 -36.75 14.882812 -35.441406 13.09375 -32.828125 C 11.3125 -30.210938 10.421875 -26.125 10.421875 -20.5625 C 10.421875 -15.144531 11.300781 -11.078125 13.0625 -8.359375 C 14.820312 -5.640625 17.585938 -4.28125 21.359375 -4.28125 C 25.453125 -4.28125 28.375 -5.59375 30.125 -8.21875 C 31.882812 -10.851562 32.765625 -14.96875 32.765625 -20.5625 Z M 32.765625 -20.5625 "></path>
</g>
<g id="glyph-2-2">
<path d="M 29.125 0 L 29.125 -26.015625 C 29.125 -29.984375 28.578125 -32.722656 27.484375 -34.234375 C 26.398438 -35.753906 24.445312 -36.515625 21.625 -36.515625 C 18.707031 -36.515625 16.398438 -35.398438 14.703125 -33.171875 C 13.015625 -30.953125 12.171875 -27.820312 12.171875 -23.78125 L 12.171875 0 L 5.390625 0 L 5.390625 -32.28125 C 5.390625 -37.050781 5.3125 -39.96875 5.15625 -41.03125 L 11.609375 -41.03125 C 11.628906 -40.90625 11.648438 -40.5625 11.671875 -40 C 11.703125 -39.445312 11.734375 -38.8125 11.765625 -38.09375 C 11.804688 -37.375 11.851562 -36.015625 11.90625 -34.015625 L 12.015625 -34.015625 C 13.484375 -36.921875 15.164062 -38.941406 17.0625 -40.078125 C 18.957031 -41.222656 21.269531 -41.796875 24 -41.796875 C 27.113281 -41.796875 29.570312 -41.175781 31.375 -39.9375 C 33.1875 -38.695312 34.445312 -36.722656 35.15625 -34.015625 L 35.265625 -34.015625 C 36.679688 -36.773438 38.394531 -38.757812 40.40625 -39.96875 C 42.414062 -41.1875 44.847656 -41.796875 47.703125 -41.796875 C 51.859375 -41.796875 54.875 -40.671875 56.75 -38.421875 C 58.632812 -36.171875 59.578125 -32.476562 59.578125 -27.34375 L 59.578125 0 L 52.828125 0 L 52.828125 -26.015625 C 52.828125 -29.984375 52.28125 -32.722656 51.1875 -34.234375 C 50.101562 -35.753906 48.148438 -36.515625 45.328125 -36.515625 C 42.335938 -36.515625 40.015625 -35.410156 38.359375 -33.203125 C 36.703125 -30.992188 35.875 -27.851562 35.875 -23.78125 L 35.875 0 Z M 29.125 0 "></path>
</g>
<g id="glyph-2-3">
<path d="M 11.90625 -41.03125 L 11.90625 -15.015625 C 11.90625 -12.304688 12.171875 -10.207031 12.703125 -8.71875 C 13.234375 -7.226562 14.078125 -6.15625 15.234375 -5.5 C 16.398438 -4.84375 18.109375 -4.515625 20.359375 -4.515625 C 23.648438 -4.515625 26.242188 -5.640625 28.140625 -7.890625 C 30.035156 -10.140625 30.984375 -13.257812 30.984375 -17.25 L 30.984375 -41.03125 L 37.8125 -41.03125 L 37.8125 -8.765625 C 37.8125 -3.984375 37.890625 -1.0625 38.046875 0 L 31.59375 0 C 31.5625 -0.125 31.535156 -0.460938 31.515625 -1.015625 C 31.492188 -1.578125 31.460938 -2.21875 31.421875 -2.9375 C 31.378906 -3.65625 31.332031 -5.015625 31.28125 -7.015625 L 31.171875 -7.015625 C 29.609375 -4.179688 27.796875 -2.175781 25.734375 -1 C 23.671875 0.175781 21.109375 0.765625 18.046875 0.765625 C 13.546875 0.765625 10.253906 -0.351562 8.171875 -2.59375 C 6.085938 -4.832031 5.046875 -8.53125 5.046875 -13.6875 L 5.046875 -41.03125 Z M 11.90625 -41.03125 "></path>
</g>
<g id="glyph-2-4">
<path d="M 31.28125 0 L 31.28125 -26.015625 C 31.28125 -28.722656 31.015625 -30.820312 30.484375 -32.3125 C 29.960938 -33.800781 29.117188 -34.875 27.953125 -35.53125 C 26.785156 -36.1875 25.078125 -36.515625 22.828125 -36.515625 C 19.546875 -36.515625 16.957031 -35.390625 15.0625 -33.140625 C 13.164062 -30.890625 12.21875 -27.769531 12.21875 -23.78125 L 12.21875 0 L 5.390625 0 L 5.390625 -32.28125 C 5.390625 -37.050781 5.3125 -39.96875 5.15625 -41.03125 L 11.609375 -41.03125 C 11.628906 -40.90625 11.648438 -40.5625 11.671875 -40 C 11.703125 -39.445312 11.734375 -38.8125 11.765625 -38.09375 C 11.804688 -37.375 11.851562 -36.015625 11.90625 -34.015625 L 12.015625 -34.015625 C 13.585938 -36.847656 15.40625 -38.851562 17.46875 -40.03125 C 19.53125 -41.207031 22.085938 -41.796875 25.140625 -41.796875 C 29.640625 -41.796875 32.929688 -40.675781 35.015625 -38.4375 C 37.109375 -36.195312 38.15625 -32.5 38.15625 -27.34375 L 38.15625 0 Z M 31.28125 0 "></path>
</g>
<g id="glyph-2-5">
<path d="M 5.203125 0 L 5.203125 -41.03125 L 12.015625 -41.03125 L 12.015625 0 Z M 5.203125 -49.765625 L 5.203125 -56.28125 L 12.015625 -56.28125 L 12.015625 -49.765625 Z M 5.203125 -49.765625 "></path>
</g>
<g id="glyph-2-6">
<path d="M 10.421875 -20.703125 C 10.421875 -15.242188 11.28125 -11.195312 13 -8.5625 C 14.726562 -5.9375 17.320312 -4.625 20.78125 -4.625 C 23.207031 -4.625 25.234375 -5.28125 26.859375 -6.59375 C 28.492188 -7.914062 29.503906 -9.941406 29.890625 -12.671875 L 36.78125 -12.21875 C 36.25 -8.269531 34.566406 -5.117188 31.734375 -2.765625 C 28.910156 -0.410156 25.320312 0.765625 20.96875 0.765625 C 15.226562 0.765625 10.847656 -1.046875 7.828125 -4.671875 C 4.804688 -8.304688 3.296875 -13.601562 3.296875 -20.5625 C 3.296875 -27.457031 4.8125 -32.71875 7.84375 -36.34375 C 10.882812 -39.976562 15.234375 -41.796875 20.890625 -41.796875 C 25.085938 -41.796875 28.570312 -40.707031 31.34375 -38.53125 C 34.113281 -36.351562 35.851562 -33.359375 36.5625 -29.546875 L 29.546875 -29.015625 C 29.191406 -31.285156 28.289062 -33.09375 26.84375 -34.4375 C 25.40625 -35.78125 23.359375 -36.453125 20.703125 -36.453125 C 17.085938 -36.453125 14.46875 -35.25 12.84375 -32.84375 C 11.226562 -30.4375 10.421875 -26.390625 10.421875 -20.703125 Z M 10.421875 -20.703125 "></path>
</g>
<g id="glyph-2-7">
<path d="M 15.703125 0.765625 C 11.578125 0.765625 8.476562 -0.320312 6.40625 -2.5 C 4.332031 -4.675781 3.296875 -7.660156 3.296875 -11.453125 C 3.296875 -15.703125 4.691406 -18.960938 7.484375 -21.234375 C 10.285156 -23.515625 14.796875 -24.726562 21.015625 -24.875 L 30.234375 -25.03125 L 30.234375 -27.265625 C 30.234375 -30.609375 29.523438 -33 28.109375 -34.4375 C 26.691406 -35.875 24.460938 -36.59375 21.421875 -36.59375 C 18.367188 -36.59375 16.144531 -36.070312 14.75 -35.03125 C 13.363281 -34 12.53125 -32.347656 12.25 -30.078125 L 5.125 -30.71875 C 6.28125 -38.101562 11.765625 -41.796875 21.578125 -41.796875 C 26.734375 -41.796875 30.613281 -40.613281 33.21875 -38.25 C 35.820312 -35.882812 37.125 -32.460938 37.125 -27.984375 L 37.125 -10.3125 C 37.125 -8.289062 37.390625 -6.765625 37.921875 -5.734375 C 38.453125 -4.710938 39.460938 -4.203125 40.953125 -4.203125 C 41.617188 -4.203125 42.367188 -4.289062 43.203125 -4.46875 L 43.203125 -0.234375 C 41.484375 0.171875 39.722656 0.375 37.921875 0.375 C 35.398438 0.375 33.5625 -0.285156 32.40625 -1.609375 C 31.257812 -2.941406 30.609375 -5.019531 30.453125 -7.84375 L 30.234375 -7.84375 C 28.484375 -4.707031 26.453125 -2.488281 24.140625 -1.1875 C 21.828125 0.113281 19.015625 0.765625 15.703125 0.765625 Z M 17.25 -4.359375 C 19.757812 -4.359375 21.984375 -4.925781 23.921875 -6.0625 C 25.867188 -7.207031 27.40625 -8.769531 28.53125 -10.75 C 29.664062 -12.738281 30.234375 -14.78125 30.234375 -16.875 L 30.234375 -20.25 L 22.75 -20.09375 C 19.539062 -20.050781 17.109375 -19.722656 15.453125 -19.109375 C 13.796875 -18.503906 12.523438 -17.566406 11.640625 -16.296875 C 10.753906 -15.035156 10.3125 -13.382812 10.3125 -11.34375 C 10.3125 -9.113281 10.910156 -7.390625 12.109375 -6.171875 C 13.316406 -4.960938 15.03125 -4.359375 17.25 -4.359375 Z M 17.25 -4.359375 "></path>
</g>
<g id="glyph-2-8">
<path d="M 10.421875 -20.703125 C 10.421875 -15.242188 11.28125 -11.195312 13 -8.5625 C 14.726562 -5.9375 17.320312 -4.625 20.78125 -4.625 C 23.207031 -4.625 25.234375 -5.28125 26.859375 -6.59375 C 28.492188 -7.914062 29.503906 -9.941406 29.890625 -12.671875 L 36.78125 -12.21875 C 36.25 -8.269531 34.566406 -5.117188 31.734375 -2.765625 C 28.910156 -0.410156 25.320312 0.765625 20.96875 0.765625 C 15.226562 0.765625 10.847656 -1.046875 7.828125 -4.671875 C 4.804688 -8.304688 3.296875 -13.601562 3.296875 -20.5625 C 3.296875 -27.457031 4.8125 -32.71875 7.84375 -36.34375 C 10.882812 -39.976562 15.234375 -41.796875 20.890625 -41.796875 C 25.085938 -41.796875 28.570312 -40.707031 31.34375 -38.53125 C 34.113281 -36.351562 35.851562 -33.359375 36.5625 -29.546875 L 29.546875 -29.015625 C 29.191406 -31.285156 28.289062 -33.09375 26.84375 -34.4375 C 25.40625 -35.78125 23.359375 -36.453125 20.703125 -36.453125 C 17.085938 -36.453125 14.46875 -35.25 12.84375 -32.84375 C 11.226562 -30.4375 10.421875 -26.390625 10.421875 -20.703125 Z M 28.484375 9.59375 C 28.484375 14.164062 25.019531 16.453125 18.09375 16.453125 C 16.65625 16.453125 15.519531 16.40625 14.6875 16.3125 L 14.6875 12.59375 C 15.925781 12.738281 17.015625 12.8125 17.953125 12.8125 C 21.660156 12.8125 23.515625 11.789062 23.515625 9.75 C 23.515625 7.800781 21.835938 6.828125 18.484375 6.828125 C 17.390625 6.828125 16.664062 6.851562 16.3125 6.90625 L 18.78125 0 L 22.84375 0 L 21.359375 3.796875 C 23.734375 3.867188 25.515625 4.414062 26.703125 5.4375 C 27.890625 6.46875 28.484375 7.851562 28.484375 9.59375 Z M 28.484375 9.59375 "></path>
</g>
<g id="glyph-2-9">
<path d="M 15.703125 0.765625 C 11.578125 0.765625 8.476562 -0.320312 6.40625 -2.5 C 4.332031 -4.675781 3.296875 -7.660156 3.296875 -11.453125 C 3.296875 -15.703125 4.691406 -18.960938 7.484375 -21.234375 C 10.285156 -23.515625 14.796875 -24.726562 21.015625 -24.875 L 30.234375 -25.03125 L 30.234375 -27.265625 C 30.234375 -30.609375 29.523438 -33 28.109375 -34.4375 C 26.691406 -35.875 24.460938 -36.59375 21.421875 -36.59375 C 18.367188 -36.59375 16.144531 -36.070312 14.75 -35.03125 C 13.363281 -34 12.53125 -32.347656 12.25 -30.078125 L 5.125 -30.71875 C 6.28125 -38.101562 11.765625 -41.796875 21.578125 -41.796875 C 26.734375 -41.796875 30.613281 -40.613281 33.21875 -38.25 C 35.820312 -35.882812 37.125 -32.460938 37.125 -27.984375 L 37.125 -10.3125 C 37.125 -8.289062 37.390625 -6.765625 37.921875 -5.734375 C 38.453125 -4.710938 39.460938 -4.203125 40.953125 -4.203125 C 41.617188 -4.203125 42.367188 -4.289062 43.203125 -4.46875 L 43.203125 -0.234375 C 41.484375 0.171875 39.722656 0.375 37.921875 0.375 C 35.398438 0.375 33.5625 -0.285156 32.40625 -1.609375 C 31.257812 -2.941406 30.609375 -5.019531 30.453125 -7.84375 L 30.234375 -7.84375 C 28.484375 -4.707031 26.453125 -2.488281 24.140625 -1.1875 C 21.828125 0.113281 19.015625 0.765625 15.703125 0.765625 Z M 17.25 -4.359375 C 19.757812 -4.359375 21.984375 -4.925781 23.921875 -6.0625 C 25.867188 -7.207031 27.40625 -8.769531 28.53125 -10.75 C 29.664062 -12.738281 30.234375 -14.78125 30.234375 -16.875 L 30.234375 -20.25 L 22.75 -20.09375 C 19.539062 -20.050781 17.109375 -19.722656 15.453125 -19.109375 C 13.796875 -18.503906 12.523438 -17.566406 11.640625 -16.296875 C 10.753906 -15.035156 10.3125 -13.382812 10.3125 -11.34375 C 10.3125 -9.113281 10.910156 -7.390625 12.109375 -6.171875 C 13.316406 -4.960938 15.03125 -4.359375 17.25 -4.359375 Z M 27.953125 -45.546875 C 26.890625 -45.546875 25.828125 -45.78125 24.765625 -46.25 C 23.703125 -46.71875 22.675781 -47.234375 21.6875 -47.796875 C 20.707031 -48.367188 19.769531 -48.890625 18.875 -49.359375 C 17.976562 -49.828125 17.132812 -50.0625 16.34375 -50.0625 C 14.957031 -50.0625 13.921875 -49.664062 13.234375 -48.875 C 12.554688 -48.09375 12.101562 -46.984375 11.875 -45.546875 L 8.421875 -45.546875 C 8.703125 -48.128906 9.144531 -50.082031 9.75 -51.40625 C 10.351562 -52.738281 11.164062 -53.789062 12.1875 -54.5625 C 13.21875 -55.332031 14.53125 -55.71875 16.125 -55.71875 C 17.238281 -55.71875 18.328125 -55.484375 19.390625 -55.015625 C 20.453125 -54.546875 21.472656 -54.023438 22.453125 -53.453125 C 23.441406 -52.890625 24.367188 -52.375 25.234375 -51.90625 C 26.109375 -51.4375 26.925781 -51.203125 27.6875 -51.203125 C 30.21875 -51.203125 31.695312 -52.707031 32.125 -55.71875 L 35.625 -55.71875 C 35.1875 -51.96875 34.335938 -49.332031 33.078125 -47.8125 C 31.816406 -46.300781 30.109375 -45.546875 27.953125 -45.546875 Z M 27.953125 -45.546875 "></path>
</g>
<g id="glyph-2-10">
</g>
<g id="glyph-2-11">
<path d="M 18.359375 0.765625 C 13.148438 0.765625 9.332031 -0.988281 6.90625 -4.5 C 4.476562 -8.019531 3.265625 -13.296875 3.265625 -20.328125 C 3.265625 -34.640625 8.296875 -41.796875 18.359375 -41.796875 C 21.460938 -41.796875 24.023438 -41.242188 26.046875 -40.140625 C 28.078125 -39.046875 29.773438 -37.222656 31.140625 -34.671875 L 31.21875 -34.671875 C 31.21875 -35.421875 31.265625 -36.722656 31.359375 -38.578125 C 31.460938 -40.441406 31.566406 -41.4375 31.671875 -41.5625 L 38.234375 -41.5625 C 38.054688 -40.070312 37.96875 -36.34375 37.96875 -30.375 L 37.96875 16.125 L 31.140625 16.125 L 31.140625 -0.53125 L 31.28125 -6.75 L 31.21875 -6.75 C 29.851562 -4.039062 28.171875 -2.109375 26.171875 -0.953125 C 24.171875 0.191406 21.566406 0.765625 18.359375 0.765625 Z M 31.140625 -21.015625 C 31.140625 -26.347656 30.265625 -30.300781 28.515625 -32.875 C 26.773438 -35.457031 23.992188 -36.75 20.171875 -36.75 C 16.710938 -36.75 14.222656 -35.457031 12.703125 -32.875 C 11.179688 -30.300781 10.421875 -26.195312 10.421875 -20.5625 C 10.421875 -14.820312 11.1875 -10.710938 12.71875 -8.234375 C 14.25 -5.753906 16.707031 -4.515625 20.09375 -4.515625 C 23.96875 -4.515625 26.773438 -5.890625 28.515625 -8.640625 C 30.265625 -11.398438 31.140625 -15.523438 31.140625 -21.015625 Z M 31.140625 -21.015625 "></path>
</g>
<g id="glyph-2-12">
<path d="M 10.46875 -19.078125 C 10.46875 -14.367188 11.441406 -10.738281 13.390625 -8.1875 C 15.335938 -5.632812 18.179688 -4.359375 21.921875 -4.359375 C 24.878906 -4.359375 27.25 -4.953125 29.03125 -6.140625 C 30.8125 -7.328125 32.019531 -8.832031 32.65625 -10.65625 L 38.640625 -8.953125 C 36.191406 -2.472656 30.617188 0.765625 21.921875 0.765625 C 15.847656 0.765625 11.222656 -1.039062 8.046875 -4.65625 C 4.878906 -8.28125 3.296875 -13.65625 3.296875 -20.78125 C 3.296875 -27.5625 4.878906 -32.757812 8.046875 -36.375 C 11.222656 -39.988281 15.757812 -41.796875 21.65625 -41.796875 C 33.71875 -41.796875 39.75 -34.523438 39.75 -19.984375 L 39.75 -19.078125 Z M 32.6875 -24.3125 C 32.3125 -28.632812 31.210938 -31.785156 29.390625 -33.765625 C 27.566406 -35.753906 24.953125 -36.75 21.546875 -36.75 C 18.234375 -36.75 15.609375 -35.640625 13.671875 -33.421875 C 11.734375 -31.210938 10.691406 -28.175781 10.546875 -24.3125 Z M 32.6875 -24.3125 "></path>
</g>
<g id="glyph-2-13">
<path d="M 36.03125 -11.34375 C 36.03125 -7.46875 34.566406 -4.476562 31.640625 -2.375 C 28.722656 -0.28125 24.632812 0.765625 19.375 0.765625 C 14.269531 0.765625 10.332031 -0.0703125 7.5625 -1.75 C 4.789062 -3.4375 2.988281 -6.066406 2.15625 -9.640625 L 8.1875 -10.8125 C 8.769531 -8.613281 9.972656 -7 11.796875 -5.96875 C 13.617188 -4.945312 16.144531 -4.4375 19.375 -4.4375 C 22.84375 -4.4375 25.378906 -4.96875 26.984375 -6.03125 C 28.585938 -7.09375 29.390625 -8.6875 29.390625 -10.8125 C 29.390625 -12.425781 28.832031 -13.738281 27.71875 -14.75 C 26.613281 -15.757812 24.820312 -16.59375 22.34375 -17.25 L 17.453125 -18.546875 C 13.523438 -19.554688 10.734375 -20.546875 9.078125 -21.515625 C 7.421875 -22.492188 6.125 -23.675781 5.1875 -25.0625 C 4.257812 -26.457031 3.796875 -28.164062 3.796875 -30.1875 C 3.796875 -33.925781 5.128906 -36.773438 7.796875 -38.734375 C 10.460938 -40.703125 14.347656 -41.6875 19.453125 -41.6875 C 23.984375 -41.6875 27.582031 -40.890625 30.25 -39.296875 C 32.914062 -37.703125 34.601562 -35.144531 35.3125 -31.625 L 29.171875 -30.875 C 28.785156 -32.695312 27.765625 -34.09375 26.109375 -35.0625 C 24.453125 -36.03125 22.234375 -36.515625 19.453125 -36.515625 C 16.367188 -36.515625 14.09375 -36.046875 12.625 -35.109375 C 11.15625 -34.179688 10.421875 -32.769531 10.421875 -30.875 C 10.421875 -29.707031 10.722656 -28.742188 11.328125 -27.984375 C 11.941406 -27.222656 12.84375 -26.578125 14.03125 -26.046875 C 15.21875 -25.523438 17.722656 -24.796875 21.546875 -23.859375 C 25.160156 -22.941406 27.765625 -22.097656 29.359375 -21.328125 C 30.953125 -20.554688 32.207031 -19.703125 33.125 -18.765625 C 34.050781 -17.835938 34.765625 -16.757812 35.265625 -15.53125 C 35.773438 -14.300781 36.03125 -12.90625 36.03125 -11.34375 Z M 36.03125 -11.34375 "></path>
</g>
<g id="glyph-2-14">
<path d="M 21.015625 -0.296875 C 18.765625 0.304688 16.460938 0.609375 14.109375 0.609375 C 8.648438 0.609375 5.921875 -2.488281 5.921875 -8.6875 L 5.921875 -36.0625 L 1.171875 -36.0625 L 1.171875 -41.03125 L 6.1875 -41.03125 L 8.1875 -50.21875 L 12.75 -50.21875 L 12.75 -41.03125 L 20.328125 -41.03125 L 20.328125 -36.0625 L 12.75 -36.0625 L 12.75 -10.171875 C 12.75 -8.191406 13.066406 -6.800781 13.703125 -6 C 14.347656 -5.207031 15.46875 -4.8125 17.0625 -4.8125 C 17.976562 -4.8125 19.296875 -4.988281 21.015625 -5.34375 Z M 21.015625 -0.296875 "></path>
</g>
<g id="glyph-2-15">
<path d="M 13.6875 -36.0625 L 13.6875 0 L 6.859375 0 L 6.859375 -36.0625 L 1.09375 -36.0625 L 1.09375 -41.03125 L 6.859375 -41.03125 L 6.859375 -45.65625 C 6.859375 -49.40625 7.679688 -52.097656 9.328125 -53.734375 C 10.972656 -55.378906 13.488281 -56.203125 16.875 -56.203125 C 18.769531 -56.203125 20.375 -56.050781 21.6875 -55.75 L 21.6875 -50.5625 C 20.550781 -50.757812 19.539062 -50.859375 18.65625 -50.859375 C 16.914062 -50.859375 15.648438 -50.414062 14.859375 -49.53125 C 14.078125 -48.644531 13.6875 -47.039062 13.6875 -44.71875 L 13.6875 -41.03125 L 21.6875 -41.03125 L 21.6875 -36.0625 Z M 13.6875 -36.0625 "></path>
</g>
<g id="glyph-3-0">
<path d="M 2.078125 0 L 2.078125 -17.46875 L 15.34375 -17.46875 L 15.34375 -15.53125 L 4.453125 -15.53125 L 4.453125 -9.9375 L 14.59375 -9.9375 L 14.59375 -8.015625 L 4.453125 -8.015625 L 4.453125 -1.9375 L 15.84375 -1.9375 L 15.84375 0 Z M 2.078125 0 "></path>
</g>
<g id="glyph-3-1">
<path d="M 11.78125 -3.703125 C 11.78125 -2.441406 11.300781 -1.46875 10.34375 -0.78125 C 9.382812 -0.09375 8.046875 0.25 6.328125 0.25 C 4.660156 0.25 3.375 -0.0234375 2.46875 -0.578125 C 1.5625 -1.128906 0.972656 -1.988281 0.703125 -3.15625 L 2.671875 -3.53125 C 2.867188 -2.8125 3.265625 -2.285156 3.859375 -1.953125 C 4.453125 -1.617188 5.273438 -1.453125 6.328125 -1.453125 C 7.460938 -1.453125 8.289062 -1.625 8.8125 -1.96875 C 9.34375 -2.3125 9.609375 -2.832031 9.609375 -3.53125 C 9.609375 -4.0625 9.425781 -4.488281 9.0625 -4.8125 C 8.695312 -5.144531 8.109375 -5.421875 7.296875 -5.640625 L 5.703125 -6.0625 C 4.421875 -6.394531 3.507812 -6.71875 2.96875 -7.03125 C 2.425781 -7.351562 2 -7.738281 1.6875 -8.1875 C 1.382812 -8.644531 1.234375 -9.207031 1.234375 -9.875 C 1.234375 -11.09375 1.671875 -12.019531 2.546875 -12.65625 C 3.421875 -13.300781 4.691406 -13.625 6.359375 -13.625 C 7.835938 -13.625 9.007812 -13.363281 9.875 -12.84375 C 10.75 -12.320312 11.304688 -11.488281 11.546875 -10.34375 L 9.53125 -10.09375 C 9.40625 -10.6875 9.070312 -11.140625 8.53125 -11.453125 C 7.988281 -11.773438 7.265625 -11.9375 6.359375 -11.9375 C 5.347656 -11.9375 4.601562 -11.78125 4.125 -11.46875 C 3.644531 -11.164062 3.40625 -10.707031 3.40625 -10.09375 C 3.40625 -9.707031 3.503906 -9.390625 3.703125 -9.140625 C 3.898438 -8.898438 4.191406 -8.691406 4.578125 -8.515625 C 4.972656 -8.335938 5.796875 -8.097656 7.046875 -7.796875 C 8.222656 -7.503906 9.070312 -7.226562 9.59375 -6.96875 C 10.113281 -6.71875 10.523438 -6.4375 10.828125 -6.125 C 11.128906 -5.820312 11.363281 -5.46875 11.53125 -5.0625 C 11.695312 -4.664062 11.78125 -4.210938 11.78125 -3.703125 Z M 11.78125 -3.703125 "></path>
</g>
<g id="glyph-3-2">
<path d="M 6.875 -0.09375 C 6.132812 0.101562 5.378906 0.203125 4.609375 0.203125 C 2.828125 0.203125 1.9375 -0.8125 1.9375 -2.84375 L 1.9375 -11.796875 L 0.390625 -11.796875 L 0.390625 -13.421875 L 2.015625 -13.421875 L 2.671875 -16.421875 L 4.171875 -16.421875 L 4.171875 -13.421875 L 6.640625 -13.421875 L 6.640625 -11.796875 L 4.171875 -11.796875 L 4.171875 -3.328125 C 4.171875 -2.679688 4.273438 -2.226562 4.484375 -1.96875 C 4.691406 -1.707031 5.054688 -1.578125 5.578125 -1.578125 C 5.878906 -1.578125 6.3125 -1.632812 6.875 -1.75 Z M 6.875 -0.09375 "></path>
</g>
<g id="glyph-3-3">
<path d="M 1.765625 0 L 1.765625 -10.296875 C 1.765625 -11.234375 1.738281 -12.273438 1.6875 -13.421875 L 3.796875 -13.421875 C 3.859375 -11.898438 3.890625 -10.984375 3.890625 -10.671875 L 3.9375 -10.671875 C 4.289062 -11.816406 4.695312 -12.597656 5.15625 -13.015625 C 5.625 -13.441406 6.28125 -13.65625 7.125 -13.65625 C 7.425781 -13.65625 7.726562 -13.613281 8.03125 -13.53125 L 8.03125 -11.5 C 7.738281 -11.570312 7.34375 -11.609375 6.84375 -11.609375 C 5.914062 -11.609375 5.207031 -11.207031 4.71875 -10.40625 C 4.226562 -9.613281 3.984375 -8.476562 3.984375 -7 L 3.984375 0 Z M 1.765625 0 "></path>
</g>
<g id="glyph-3-4">
<path d="M 3.890625 -13.421875 L 3.890625 -4.90625 C 3.890625 -4.019531 3.972656 -3.332031 4.140625 -2.84375 C 4.316406 -2.363281 4.59375 -2.015625 4.96875 -1.796875 C 5.351562 -1.578125 5.914062 -1.46875 6.65625 -1.46875 C 7.726562 -1.46875 8.570312 -1.835938 9.1875 -2.578125 C 9.8125 -3.316406 10.125 -4.335938 10.125 -5.640625 L 10.125 -13.421875 L 12.359375 -13.421875 L 12.359375 -2.859375 C 12.359375 -1.296875 12.382812 -0.34375 12.4375 0 L 10.328125 0 C 10.316406 -0.0390625 10.304688 -0.148438 10.296875 -0.328125 C 10.296875 -0.515625 10.285156 -0.722656 10.265625 -0.953125 C 10.253906 -1.191406 10.242188 -1.640625 10.234375 -2.296875 L 10.1875 -2.296875 C 9.675781 -1.367188 9.082031 -0.710938 8.40625 -0.328125 C 7.738281 0.0546875 6.90625 0.25 5.90625 0.25 C 4.425781 0.25 3.347656 -0.113281 2.671875 -0.84375 C 1.992188 -1.582031 1.65625 -2.789062 1.65625 -4.46875 L 1.65625 -13.421875 Z M 3.890625 -13.421875 "></path>
</g>
<g id="glyph-3-5">
<path d="M 5.125 0.25 C 3.78125 0.25 2.769531 -0.101562 2.09375 -0.8125 C 1.414062 -1.53125 1.078125 -2.507812 1.078125 -3.75 C 1.078125 -5.132812 1.53125 -6.195312 2.4375 -6.9375 C 3.351562 -7.6875 4.832031 -8.085938 6.875 -8.140625 L 9.875 -8.1875 L 9.875 -8.90625 C 9.875 -10 9.644531 -10.78125 9.1875 -11.25 C 8.726562 -11.726562 8 -11.96875 7 -11.96875 C 6 -11.96875 5.269531 -11.796875 4.8125 -11.453125 C 4.363281 -11.117188 4.09375 -10.578125 4 -9.828125 L 1.671875 -10.046875 C 2.054688 -12.453125 3.847656 -13.65625 7.046875 -13.65625 C 8.734375 -13.65625 10.003906 -13.269531 10.859375 -12.5 C 11.710938 -11.726562 12.140625 -10.613281 12.140625 -9.15625 L 12.140625 -3.375 C 12.140625 -2.707031 12.222656 -2.207031 12.390625 -1.875 C 12.566406 -1.539062 12.898438 -1.375 13.390625 -1.375 C 13.609375 -1.375 13.851562 -1.40625 14.125 -1.46875 L 14.125 -0.078125 C 13.5625 0.0546875 12.984375 0.125 12.390625 0.125 C 11.566406 0.125 10.96875 -0.0859375 10.59375 -0.515625 C 10.21875 -0.953125 10.003906 -1.632812 9.953125 -2.5625 L 9.875 -2.5625 C 9.3125 -1.539062 8.648438 -0.816406 7.890625 -0.390625 C 7.128906 0.0351562 6.207031 0.25 5.125 0.25 Z M 5.640625 -1.421875 C 6.460938 -1.421875 7.191406 -1.609375 7.828125 -1.984375 C 8.460938 -2.359375 8.960938 -2.867188 9.328125 -3.515625 C 9.691406 -4.160156 9.875 -4.828125 9.875 -5.515625 L 9.875 -6.625 L 7.4375 -6.578125 C 6.382812 -6.554688 5.585938 -6.445312 5.046875 -6.25 C 4.503906 -6.050781 4.085938 -5.742188 3.796875 -5.328125 C 3.515625 -4.921875 3.375 -4.378906 3.375 -3.703125 C 3.375 -2.972656 3.566406 -2.410156 3.953125 -2.015625 C 4.347656 -1.617188 4.910156 -1.421875 5.640625 -1.421875 Z M 5.640625 -1.421875 "></path>
</g>
<g id="glyph-3-6">
</g>
<g id="glyph-3-7">
<path d="M 3.40625 -6.765625 C 3.40625 -4.984375 3.6875 -3.660156 4.25 -2.796875 C 4.8125 -1.941406 5.660156 -1.515625 6.796875 -1.515625 C 7.585938 -1.515625 8.25 -1.726562 8.78125 -2.15625 C 9.3125 -2.582031 9.640625 -3.242188 9.765625 -4.140625 L 12.03125 -3.984375 C 11.851562 -2.703125 11.300781 -1.675781 10.375 -0.90625 C 9.445312 -0.132812 8.273438 0.25 6.859375 0.25 C 4.984375 0.25 3.550781 -0.34375 2.5625 -1.53125 C 1.570312 -2.71875 1.078125 -4.445312 1.078125 -6.71875 C 1.078125 -8.976562 1.570312 -10.695312 2.5625 -11.875 C 3.550781 -13.0625 4.972656 -13.65625 6.828125 -13.65625 C 8.203125 -13.65625 9.34375 -13.300781 10.25 -12.59375 C 11.15625 -11.882812 11.722656 -10.90625 11.953125 -9.65625 L 9.65625 -9.484375 C 9.539062 -10.222656 9.25 -10.8125 8.78125 -11.25 C 8.3125 -11.695312 7.640625 -11.921875 6.765625 -11.921875 C 5.585938 -11.921875 4.734375 -11.523438 4.203125 -10.734375 C 3.671875 -9.953125 3.40625 -8.628906 3.40625 -6.765625 Z M 3.40625 -6.765625 "></path>
</g>
<g id="glyph-3-8">
<path d="M 13.0625 -6.71875 C 13.0625 -4.375 12.539062 -2.625 11.5 -1.46875 C 10.46875 -0.320312 8.96875 0.25 7 0.25 C 5.039062 0.25 3.5625 -0.34375 2.5625 -1.53125 C 1.5625 -2.726562 1.0625 -4.457031 1.0625 -6.71875 C 1.0625 -11.34375 3.066406 -13.65625 7.078125 -13.65625 C 9.128906 -13.65625 10.640625 -13.09375 11.609375 -11.96875 C 12.578125 -10.84375 13.0625 -9.09375 13.0625 -6.71875 Z M 10.71875 -6.71875 C 10.71875 -8.570312 10.441406 -9.914062 9.890625 -10.75 C 9.335938 -11.59375 8.410156 -12.015625 7.109375 -12.015625 C 5.804688 -12.015625 4.863281 -11.585938 4.28125 -10.734375 C 3.695312 -9.878906 3.40625 -8.539062 3.40625 -6.71875 C 3.40625 -4.945312 3.691406 -3.617188 4.265625 -2.734375 C 4.835938 -1.847656 5.742188 -1.40625 6.984375 -1.40625 C 8.316406 -1.40625 9.269531 -1.832031 9.84375 -2.6875 C 10.425781 -3.550781 10.71875 -4.894531 10.71875 -6.71875 Z M 10.71875 -6.71875 "></path>
</g>
<g id="glyph-3-9">
<path d="M 9.515625 0 L 9.515625 -8.5 C 9.515625 -9.800781 9.335938 -10.695312 8.984375 -11.1875 C 8.628906 -11.6875 7.988281 -11.9375 7.0625 -11.9375 C 6.113281 -11.9375 5.363281 -11.570312 4.8125 -10.84375 C 4.257812 -10.113281 3.984375 -9.085938 3.984375 -7.765625 L 3.984375 0 L 1.765625 0 L 1.765625 -10.546875 C 1.765625 -12.109375 1.738281 -13.066406 1.6875 -13.421875 L 3.796875 -13.421875 C 3.804688 -13.378906 3.8125 -13.265625 3.8125 -13.078125 C 3.820312 -12.898438 3.832031 -12.691406 3.84375 -12.453125 C 3.863281 -12.210938 3.878906 -11.769531 3.890625 -11.125 L 3.9375 -11.125 C 4.414062 -12.070312 4.960938 -12.726562 5.578125 -13.09375 C 6.203125 -13.46875 6.957031 -13.65625 7.84375 -13.65625 C 8.863281 -13.65625 9.664062 -13.453125 10.25 -13.046875 C 10.84375 -12.648438 11.257812 -12.007812 11.5 -11.125 L 11.53125 -11.125 C 11.988281 -12.019531 12.546875 -12.664062 13.203125 -13.0625 C 13.867188 -13.457031 14.664062 -13.65625 15.59375 -13.65625 C 16.945312 -13.65625 17.929688 -13.285156 18.546875 -12.546875 C 19.171875 -11.816406 19.484375 -10.613281 19.484375 -8.9375 L 19.484375 0 L 17.265625 0 L 17.265625 -8.5 C 17.265625 -9.800781 17.085938 -10.695312 16.734375 -11.1875 C 16.378906 -11.6875 15.738281 -11.9375 14.8125 -11.9375 C 13.84375 -11.9375 13.085938 -11.570312 12.546875 -10.84375 C 12.003906 -10.125 11.734375 -9.097656 11.734375 -7.765625 L 11.734375 0 Z M 9.515625 0 "></path>
</g>
<g id="glyph-3-10">
<path d="M 13.0625 -6.765625 C 13.0625 -2.085938 11.414062 0.25 8.125 0.25 C 6.050781 0.25 4.660156 -0.523438 3.953125 -2.078125 L 3.890625 -2.078125 C 3.921875 -2.015625 3.9375 -1.3125 3.9375 0.03125 L 3.9375 5.265625 L 1.703125 5.265625 L 1.703125 -10.671875 C 1.703125 -12.054688 1.679688 -12.972656 1.640625 -13.421875 L 3.796875 -13.421875 C 3.804688 -13.378906 3.816406 -13.253906 3.828125 -13.046875 C 3.847656 -12.847656 3.867188 -12.539062 3.890625 -12.125 C 3.910156 -11.707031 3.921875 -11.414062 3.921875 -11.25 L 3.96875 -11.25 C 4.363281 -12.082031 4.882812 -12.691406 5.53125 -13.078125 C 6.1875 -13.460938 7.050781 -13.65625 8.125 -13.65625 C 9.769531 -13.65625 11.003906 -13.097656 11.828125 -11.984375 C 12.648438 -10.878906 13.0625 -9.140625 13.0625 -6.765625 Z M 10.71875 -6.71875 C 10.71875 -8.582031 10.460938 -9.914062 9.953125 -10.71875 C 9.453125 -11.519531 8.648438 -11.921875 7.546875 -11.921875 C 6.660156 -11.921875 5.96875 -11.734375 5.46875 -11.359375 C 4.96875 -10.992188 4.585938 -10.414062 4.328125 -9.625 C 4.066406 -8.832031 3.9375 -7.804688 3.9375 -6.546875 C 3.9375 -4.785156 4.21875 -3.488281 4.78125 -2.65625 C 5.34375 -1.820312 6.257812 -1.40625 7.53125 -1.40625 C 8.632812 -1.40625 9.441406 -1.8125 9.953125 -2.625 C 10.460938 -3.4375 10.71875 -4.800781 10.71875 -6.71875 Z M 10.71875 -6.71875 "></path>
</g>
<g id="glyph-3-11">
<path d="M 1.703125 0 L 1.703125 -18.390625 L 3.9375 -18.390625 L 3.9375 0 Z M 1.703125 0 "></path>
</g>
<g id="glyph-3-12">
<path d="M 3.421875 -6.234375 C 3.421875 -4.703125 3.738281 -3.515625 4.375 -2.671875 C 5.007812 -1.835938 5.941406 -1.421875 7.171875 -1.421875 C 8.128906 -1.421875 8.898438 -1.613281 9.484375 -2 C 10.066406 -2.394531 10.460938 -2.890625 10.671875 -3.484375 L 12.640625 -2.921875 C 11.835938 -0.804688 10.015625 0.25 7.171875 0.25 C 5.179688 0.25 3.664062 -0.335938 2.625 -1.515625 C 1.59375 -2.703125 1.078125 -4.460938 1.078125 -6.796875 C 1.078125 -9.003906 1.59375 -10.695312 2.625 -11.875 C 3.664062 -13.0625 5.148438 -13.65625 7.078125 -13.65625 C 11.023438 -13.65625 13 -11.28125 13 -6.53125 L 13 -6.234375 Z M 10.6875 -7.953125 C 10.5625 -9.359375 10.203125 -10.382812 9.609375 -11.03125 C 9.015625 -11.6875 8.160156 -12.015625 7.046875 -12.015625 C 5.960938 -12.015625 5.101562 -11.648438 4.46875 -10.921875 C 3.832031 -10.203125 3.492188 -9.210938 3.453125 -7.953125 Z M 10.6875 -7.953125 "></path>
</g>
<g id="glyph-3-13">
<path d="M 10.171875 -2.15625 C 9.765625 -1.300781 9.21875 -0.6875 8.53125 -0.3125 C 7.851562 0.0625 7.007812 0.25 6 0.25 C 4.300781 0.25 3.050781 -0.316406 2.25 -1.453125 C 1.457031 -2.597656 1.0625 -4.328125 1.0625 -6.640625 C 1.0625 -11.316406 2.707031 -13.65625 6 -13.65625 C 7.019531 -13.65625 7.867188 -13.46875 8.546875 -13.09375 C 9.222656 -12.726562 9.765625 -12.140625 10.171875 -11.328125 L 10.203125 -11.328125 L 10.171875 -12.828125 L 10.171875 -18.390625 L 12.40625 -18.390625 L 12.40625 -2.765625 C 12.40625 -1.367188 12.429688 -0.445312 12.484375 0 L 10.359375 0 C 10.328125 -0.132812 10.296875 -0.441406 10.265625 -0.921875 C 10.242188 -1.398438 10.234375 -1.8125 10.234375 -2.15625 Z M 3.40625 -6.71875 C 3.40625 -4.84375 3.648438 -3.5 4.140625 -2.6875 C 4.640625 -1.875 5.453125 -1.46875 6.578125 -1.46875 C 7.835938 -1.46875 8.75 -1.90625 9.3125 -2.78125 C 9.882812 -3.664062 10.171875 -5.03125 10.171875 -6.875 C 10.171875 -8.644531 9.882812 -9.941406 9.3125 -10.765625 C 8.75 -11.597656 7.84375 -12.015625 6.59375 -12.015625 C 5.46875 -12.015625 4.65625 -11.597656 4.15625 -10.765625 C 3.65625 -9.929688 3.40625 -8.582031 3.40625 -6.71875 Z M 3.40625 -6.71875 "></path>
</g>
<g id="glyph-3-14">
<path d="M 1.125 -5.75 L 1.125 -7.734375 L 7.328125 -7.734375 L 7.328125 -5.75 Z M 1.125 -5.75 "></path>
</g>
<g id="glyph-3-15">
<path d="M 1.703125 0 L 1.703125 -13.421875 L 3.9375 -13.421875 L 3.9375 0 Z M 1.703125 -16.265625 L 1.703125 -18.390625 L 3.9375 -18.390625 L 3.9375 -16.265625 Z M 1.703125 -16.265625 "></path>
</g>
<g id="glyph-3-16">
<path d="M 10.109375 0 L 5.578125 -6.125 L 3.9375 -4.765625 L 3.9375 0 L 1.703125 0 L 1.703125 -18.390625 L 3.9375 -18.390625 L 3.9375 -6.90625 L 9.828125 -13.421875 L 12.453125 -13.421875 L 7 -7.65625 L 12.734375 0 Z M 10.109375 0 "></path>
</g>
<g id="glyph-3-17">
<path d="M 10.234375 0 L 10.234375 -8.5 C 10.234375 -9.382812 10.144531 -10.070312 9.96875 -10.5625 C 9.789062 -11.050781 9.507812 -11.398438 9.125 -11.609375 C 8.75 -11.828125 8.195312 -11.9375 7.46875 -11.9375 C 6.394531 -11.9375 5.546875 -11.566406 4.921875 -10.828125 C 4.296875 -10.097656 3.984375 -9.078125 3.984375 -7.765625 L 3.984375 0 L 1.765625 0 L 1.765625 -10.546875 C 1.765625 -12.109375 1.738281 -13.066406 1.6875 -13.421875 L 3.796875 -13.421875 C 3.804688 -13.378906 3.8125 -13.265625 3.8125 -13.078125 C 3.820312 -12.898438 3.832031 -12.691406 3.84375 -12.453125 C 3.863281 -12.210938 3.878906 -11.769531 3.890625 -11.125 L 3.9375 -11.125 C 4.445312 -12.050781 5.035156 -12.703125 5.703125 -13.078125 C 6.378906 -13.460938 7.21875 -13.65625 8.21875 -13.65625 C 9.6875 -13.65625 10.757812 -13.289062 11.4375 -12.5625 C 12.125 -11.832031 12.46875 -10.625 12.46875 -8.9375 L 12.46875 0 Z M 10.234375 0 "></path>
</g>
<g id="glyph-3-18">
<path d="M 6.796875 5.265625 C 5.328125 5.265625 4.160156 4.976562 3.296875 4.40625 C 2.429688 3.832031 1.875 3.015625 1.625 1.953125 L 3.875 1.640625 C 4.019531 2.253906 4.34375 2.726562 4.84375 3.0625 C 5.351562 3.40625 6.023438 3.578125 6.859375 3.578125 C 9.078125 3.578125 10.1875 2.273438 10.1875 -0.328125 L 10.1875 -2.484375 L 10.171875 -2.484375 C 9.742188 -1.628906 9.160156 -0.984375 8.421875 -0.546875 C 7.691406 -0.117188 6.835938 0.09375 5.859375 0.09375 C 4.210938 0.09375 3 -0.445312 2.21875 -1.53125 C 1.445312 -2.625 1.0625 -4.34375 1.0625 -6.6875 C 1.0625 -9.050781 1.476562 -10.796875 2.3125 -11.921875 C 3.144531 -13.054688 4.40625 -13.625 6.09375 -13.625 C 7.050781 -13.625 7.878906 -13.40625 8.578125 -12.96875 C 9.273438 -12.539062 9.8125 -11.925781 10.1875 -11.125 L 10.21875 -11.125 C 10.21875 -11.375 10.234375 -11.800781 10.265625 -12.40625 C 10.296875 -13.019531 10.328125 -13.359375 10.359375 -13.421875 L 12.484375 -13.421875 C 12.429688 -12.972656 12.40625 -12.046875 12.40625 -10.640625 L 12.40625 -0.390625 C 12.40625 3.378906 10.535156 5.265625 6.796875 5.265625 Z M 10.1875 -6.703125 C 10.1875 -7.796875 10.035156 -8.738281 9.734375 -9.53125 C 9.441406 -10.320312 9.023438 -10.925781 8.484375 -11.34375 C 7.941406 -11.757812 7.328125 -11.96875 6.640625 -11.96875 C 5.503906 -11.96875 4.675781 -11.550781 4.15625 -10.71875 C 3.632812 -9.894531 3.375 -8.554688 3.375 -6.703125 C 3.375 -4.867188 3.613281 -3.550781 4.09375 -2.75 C 4.582031 -1.945312 5.421875 -1.546875 6.609375 -1.546875 C 7.304688 -1.546875 7.925781 -1.753906 8.46875 -2.171875 C 9.019531 -2.585938 9.441406 -3.179688 9.734375 -3.953125 C 10.035156 -4.722656 10.1875 -5.640625 10.1875 -6.703125 Z M 10.1875 -6.703125 "></path>
</g>
<g id="glyph-3-19">
<path d="M 14.71875 0 L 0.8125 0 L 0.8125 -1.765625 L 11.4375 -15.53125 L 1.703125 -15.53125 L 1.703125 -17.46875 L 14.140625 -17.46875 L 14.140625 -15.75 L 3.5 -1.9375 L 14.71875 -1.9375 Z M 14.71875 0 "></path>
</g>
<g id="glyph-3-20">
<path d="M 2.3125 0 L 2.3125 -2.5625 L 4.734375 -2.5625 L 4.734375 0 Z M 2.3125 -10.84375 L 2.3125 -13.421875 L 4.734375 -13.421875 L 4.734375 -10.84375 Z M 2.3125 -10.84375 "></path>
</g>
<g id="glyph-3-21">
<path d="M 6 0.25 C 4.300781 0.25 3.050781 -0.320312 2.25 -1.46875 C 1.457031 -2.625 1.0625 -4.347656 1.0625 -6.640625 C 1.0625 -11.316406 2.707031 -13.65625 6 -13.65625 C 7.019531 -13.65625 7.859375 -13.472656 8.515625 -13.109375 C 9.179688 -12.753906 9.734375 -12.160156 10.171875 -11.328125 L 10.203125 -11.328125 C 10.203125 -11.578125 10.21875 -12.003906 10.25 -12.609375 C 10.28125 -13.222656 10.316406 -13.550781 10.359375 -13.59375 L 12.5 -13.59375 C 12.4375 -13.101562 12.40625 -11.882812 12.40625 -9.9375 L 12.40625 5.265625 L 10.171875 5.265625 L 10.171875 -0.171875 L 10.234375 -2.203125 L 10.203125 -2.203125 C 9.753906 -1.316406 9.203125 -0.6875 8.546875 -0.3125 C 7.898438 0.0625 7.050781 0.25 6 0.25 Z M 10.171875 -6.875 C 10.171875 -8.613281 9.882812 -9.90625 9.3125 -10.75 C 8.75 -11.59375 7.84375 -12.015625 6.59375 -12.015625 C 5.457031 -12.015625 4.640625 -11.59375 4.140625 -10.75 C 3.648438 -9.90625 3.40625 -8.5625 3.40625 -6.71875 C 3.40625 -4.84375 3.65625 -3.5 4.15625 -2.6875 C 4.65625 -1.875 5.460938 -1.46875 6.578125 -1.46875 C 7.835938 -1.46875 8.75 -1.914062 9.3125 -2.8125 C 9.882812 -3.71875 10.171875 -5.070312 10.171875 -6.875 Z M 10.171875 -6.875 "></path>
</g>
<g id="glyph-3-22">
<path d="M 4.765625 -2.71875 L 4.765625 -0.625 C 4.765625 0.25 4.6875 0.976562 4.53125 1.5625 C 4.375 2.144531 4.132812 2.707031 3.8125 3.25 L 2.28125 3.25 C 3.0625 2.125 3.453125 1.039062 3.453125 0 L 2.359375 0 L 2.359375 -2.71875 Z M 4.765625 -2.71875 "></path>
</g>
<g id="glyph-3-23">
<path d="M 13.0625 -6.765625 C 13.0625 -2.085938 11.414062 0.25 8.125 0.25 C 7.101562 0.25 6.253906 0.0664062 5.578125 -0.296875 C 4.910156 -0.671875 4.363281 -1.265625 3.9375 -2.078125 L 3.921875 -2.078125 C 3.921875 -1.828125 3.898438 -1.4375 3.859375 -0.90625 C 3.828125 -0.382812 3.804688 -0.0820312 3.796875 0 L 1.640625 0 C 1.679688 -0.445312 1.703125 -1.367188 1.703125 -2.765625 L 1.703125 -18.390625 L 3.9375 -18.390625 L 3.9375 -13.15625 C 3.9375 -12.613281 3.921875 -11.976562 3.890625 -11.25 L 3.9375 -11.25 C 4.351562 -12.113281 4.898438 -12.726562 5.578125 -13.09375 C 6.265625 -13.46875 7.113281 -13.65625 8.125 -13.65625 C 9.8125 -13.65625 11.054688 -13.082031 11.859375 -11.9375 C 12.660156 -10.800781 13.0625 -9.078125 13.0625 -6.765625 Z M 10.71875 -6.6875 C 10.71875 -8.570312 10.46875 -9.914062 9.96875 -10.71875 C 9.46875 -11.53125 8.660156 -11.9375 7.546875 -11.9375 C 6.296875 -11.9375 5.378906 -11.503906 4.796875 -10.640625 C 4.222656 -9.785156 3.9375 -8.425781 3.9375 -6.5625 C 3.9375 -4.800781 4.21875 -3.5 4.78125 -2.65625 C 5.34375 -1.820312 6.257812 -1.40625 7.53125 -1.40625 C 8.65625 -1.40625 9.46875 -1.816406 9.96875 -2.640625 C 10.46875 -3.472656 10.71875 -4.820312 10.71875 -6.6875 Z M 10.71875 -6.6875 "></path>
</g>
<g id="glyph-3-24">
<path d="M 4.46875 -11.796875 L 4.46875 0 L 2.25 0 L 2.25 -11.796875 L 0.359375 -11.796875 L 0.359375 -13.421875 L 2.25 -13.421875 L 2.25 -14.921875 C 2.25 -16.148438 2.515625 -17.03125 3.046875 -17.5625 C 3.585938 -18.101562 4.410156 -18.375 5.515625 -18.375 C 6.140625 -18.375 6.664062 -18.320312 7.09375 -18.21875 L 7.09375 -16.53125 C 6.71875 -16.59375 6.382812 -16.625 6.09375 -16.625 C 5.53125 -16.625 5.117188 -16.476562 4.859375 -16.1875 C 4.597656 -15.894531 4.46875 -15.367188 4.46875 -14.609375 L 4.46875 -13.421875 L 7.09375 -13.421875 L 7.09375 -11.796875 Z M 4.46875 -11.796875 "></path>
</g>
<g id="glyph-3-25">
<path d="M 3.40625 -6.765625 C 3.40625 -4.984375 3.6875 -3.660156 4.25 -2.796875 C 4.8125 -1.941406 5.660156 -1.515625 6.796875 -1.515625 C 7.585938 -1.515625 8.25 -1.726562 8.78125 -2.15625 C 9.3125 -2.582031 9.640625 -3.242188 9.765625 -4.140625 L 12.03125 -3.984375 C 11.851562 -2.703125 11.300781 -1.675781 10.375 -0.90625 C 9.445312 -0.132812 8.273438 0.25 6.859375 0.25 C 4.984375 0.25 3.550781 -0.34375 2.5625 -1.53125 C 1.570312 -2.71875 1.078125 -4.445312 1.078125 -6.71875 C 1.078125 -8.976562 1.570312 -10.695312 2.5625 -11.875 C 3.550781 -13.0625 4.972656 -13.65625 6.828125 -13.65625 C 8.203125 -13.65625 9.34375 -13.300781 10.25 -12.59375 C 11.15625 -11.882812 11.722656 -10.90625 11.953125 -9.65625 L 9.65625 -9.484375 C 9.539062 -10.222656 9.25 -10.8125 8.78125 -11.25 C 8.3125 -11.695312 7.640625 -11.921875 6.765625 -11.921875 C 5.585938 -11.921875 4.734375 -11.523438 4.203125 -10.734375 C 3.671875 -9.953125 3.40625 -8.628906 3.40625 -6.765625 Z M 9.3125 3.140625 C 9.3125 4.628906 8.179688 5.375 5.921875 5.375 C 5.453125 5.375 5.078125 5.359375 4.796875 5.328125 L 4.796875 4.109375 C 5.203125 4.160156 5.5625 4.1875 5.875 4.1875 C 7.082031 4.1875 7.6875 3.851562 7.6875 3.1875 C 7.6875 2.550781 7.140625 2.234375 6.046875 2.234375 C 5.691406 2.234375 5.457031 2.238281 5.34375 2.25 L 6.140625 0 L 7.46875 0 L 6.984375 1.234375 C 7.765625 1.265625 8.347656 1.445312 8.734375 1.78125 C 9.117188 2.113281 9.3125 2.566406 9.3125 3.140625 Z M 9.3125 3.140625 "></path>
</g>
<g id="glyph-3-26">
<path d="M 5.125 0.25 C 3.78125 0.25 2.769531 -0.101562 2.09375 -0.8125 C 1.414062 -1.53125 1.078125 -2.507812 1.078125 -3.75 C 1.078125 -5.132812 1.53125 -6.195312 2.4375 -6.9375 C 3.351562 -7.6875 4.832031 -8.085938 6.875 -8.140625 L 9.875 -8.1875 L 9.875 -8.90625 C 9.875 -10 9.644531 -10.78125 9.1875 -11.25 C 8.726562 -11.726562 8 -11.96875 7 -11.96875 C 6 -11.96875 5.269531 -11.796875 4.8125 -11.453125 C 4.363281 -11.117188 4.09375 -10.578125 4 -9.828125 L 1.671875 -10.046875 C 2.054688 -12.453125 3.847656 -13.65625 7.046875 -13.65625 C 8.734375 -13.65625 10.003906 -13.269531 10.859375 -12.5 C 11.710938 -11.726562 12.140625 -10.613281 12.140625 -9.15625 L 12.140625 -3.375 C 12.140625 -2.707031 12.222656 -2.207031 12.390625 -1.875 C 12.566406 -1.539062 12.898438 -1.375 13.390625 -1.375 C 13.609375 -1.375 13.851562 -1.40625 14.125 -1.46875 L 14.125 -0.078125 C 13.5625 0.0546875 12.984375 0.125 12.390625 0.125 C 11.566406 0.125 10.96875 -0.0859375 10.59375 -0.515625 C 10.21875 -0.953125 10.003906 -1.632812 9.953125 -2.5625 L 9.875 -2.5625 C 9.3125 -1.539062 8.648438 -0.816406 7.890625 -0.390625 C 7.128906 0.0351562 6.207031 0.25 5.125 0.25 Z M 5.640625 -1.421875 C 6.460938 -1.421875 7.191406 -1.609375 7.828125 -1.984375 C 8.460938 -2.359375 8.960938 -2.867188 9.328125 -3.515625 C 9.691406 -4.160156 9.875 -4.828125 9.875 -5.515625 L 9.875 -6.625 L 7.4375 -6.578125 C 6.382812 -6.554688 5.585938 -6.445312 5.046875 -6.25 C 4.503906 -6.050781 4.085938 -5.742188 3.796875 -5.328125 C 3.515625 -4.921875 3.375 -4.378906 3.375 -3.703125 C 3.375 -2.972656 3.566406 -2.410156 3.953125 -2.015625 C 4.347656 -1.617188 4.910156 -1.421875 5.640625 -1.421875 Z M 9.125 -14.890625 C 8.78125 -14.890625 8.429688 -14.960938 8.078125 -15.109375 C 7.734375 -15.265625 7.398438 -15.4375 7.078125 -15.625 C 6.765625 -15.8125 6.457031 -15.976562 6.15625 -16.125 C 5.863281 -16.28125 5.59375 -16.359375 5.34375 -16.359375 C 4.882812 -16.359375 4.539062 -16.226562 4.3125 -15.96875 C 4.09375 -15.71875 3.945312 -15.359375 3.875 -14.890625 L 2.75 -14.890625 C 2.832031 -15.734375 2.972656 -16.367188 3.171875 -16.796875 C 3.378906 -17.234375 3.648438 -17.578125 3.984375 -17.828125 C 4.316406 -18.085938 4.742188 -18.21875 5.265625 -18.21875 C 5.628906 -18.21875 5.984375 -18.140625 6.328125 -17.984375 C 6.671875 -17.828125 7.003906 -17.65625 7.328125 -17.46875 C 7.648438 -17.289062 7.953125 -17.125 8.234375 -16.96875 C 8.523438 -16.8125 8.796875 -16.734375 9.046875 -16.734375 C 9.867188 -16.734375 10.351562 -17.226562 10.5 -18.21875 L 11.640625 -18.21875 C 11.492188 -16.988281 11.210938 -16.125 10.796875 -15.625 C 10.390625 -15.132812 9.832031 -14.890625 9.125 -14.890625 Z M 9.125 -14.890625 "></path>
</g>
<g id="glyph-3-27">
<path d="M 7.59375 0 L 4.953125 0 L 0.09375 -13.421875 L 2.46875 -13.421875 L 5.421875 -4.6875 C 5.523438 -4.351562 5.804688 -3.375 6.265625 -1.75 L 6.703125 -3.203125 L 7.1875 -4.65625 L 10.234375 -13.421875 L 12.609375 -13.421875 Z M 7.59375 0 "></path>
</g>
<g id="glyph-3-28">
<path d="M 2.3125 0 L 2.3125 -2.71875 L 4.734375 -2.71875 L 4.734375 0 Z M 2.3125 0 "></path>
</g>
<g id="glyph-4-0">
<path d="M 6.921875 0 L 0.375 0 L 0.375 -0.828125 L 5.390625 -7.3125 L 0.8125 -7.3125 L 0.8125 -8.21875 L 6.65625 -8.21875 L 6.65625 -7.40625 L 1.640625 -0.90625 L 6.921875 -0.90625 Z M 6.921875 0 "></path>
</g>
<g id="glyph-4-1">
<path d="M 0.984375 0 L 0.984375 -8.21875 L 7.21875 -8.21875 L 7.21875 -7.3125 L 2.09375 -7.3125 L 2.09375 -4.671875 L 6.875 -4.671875 L 6.875 -3.78125 L 2.09375 -3.78125 L 2.09375 -0.90625 L 7.453125 -0.90625 L 7.453125 0 Z M 0.984375 0 "></path>
</g>
<g id="glyph-4-2">
<path d="M 8.71875 -4.15625 C 8.71875 -3.289062 8.550781 -2.535156 8.21875 -1.890625 C 7.894531 -1.242188 7.425781 -0.75 6.8125 -0.40625 C 6.195312 -0.0625 5.472656 0.109375 4.640625 0.109375 C 3.796875 0.109375 3.066406 -0.0546875 2.453125 -0.390625 C 1.835938 -0.734375 1.367188 -1.226562 1.046875 -1.875 C 0.722656 -2.53125 0.5625 -3.289062 0.5625 -4.15625 C 0.5625 -5.46875 0.921875 -6.492188 1.640625 -7.234375 C 2.359375 -7.972656 3.363281 -8.34375 4.65625 -8.34375 C 5.488281 -8.34375 6.210938 -8.175781 6.828125 -7.84375 C 7.441406 -7.507812 7.910156 -7.023438 8.234375 -6.390625 C 8.554688 -5.765625 8.71875 -5.019531 8.71875 -4.15625 Z M 7.59375 -4.15625 C 7.59375 -5.175781 7.332031 -5.976562 6.8125 -6.5625 C 6.300781 -7.144531 5.582031 -7.4375 4.65625 -7.4375 C 3.707031 -7.4375 2.976562 -7.144531 2.46875 -6.5625 C 1.957031 -5.988281 1.703125 -5.1875 1.703125 -4.15625 C 1.703125 -3.125 1.957031 -2.300781 2.46875 -1.6875 C 2.988281 -1.082031 3.710938 -0.78125 4.640625 -0.78125 C 5.585938 -0.78125 6.316406 -1.070312 6.828125 -1.65625 C 7.335938 -2.25 7.59375 -3.082031 7.59375 -4.15625 Z M 7.59375 -4.15625 "></path>
</g>
<g id="glyph-4-3">
<path d="M 7.96875 0 L 7.96875 -5.484375 C 7.96875 -6.085938 7.988281 -6.671875 8.03125 -7.234375 C 7.832031 -6.535156 7.660156 -5.992188 7.515625 -5.609375 L 5.390625 0 L 4.609375 0 L 2.453125 -5.609375 L 2.125 -6.59375 L 1.9375 -7.234375 L 1.953125 -6.59375 L 1.96875 -5.484375 L 1.96875 0 L 0.984375 0 L 0.984375 -8.21875 L 2.453125 -8.21875 L 4.640625 -2.515625 C 4.710938 -2.285156 4.785156 -2.039062 4.859375 -1.78125 C 4.929688 -1.519531 4.976562 -1.332031 5 -1.21875 C 5.03125 -1.375 5.09375 -1.609375 5.1875 -1.921875 C 5.289062 -2.242188 5.363281 -2.441406 5.40625 -2.515625 L 7.546875 -8.21875 L 8.96875 -8.21875 L 8.96875 0 Z M 7.96875 0 "></path>
</g>
<g id="glyph-4-4">
</g>
<g id="glyph-4-5">
<path d="M 1.421875 -2.609375 L 1.421875 -3.890625 L 2.5625 -3.890625 L 2.5625 -2.609375 Z M 1.421875 -2.609375 "></path>
</g>
<g id="glyph-4-6">
<path d="M 8.0625 -4.203125 C 8.0625 -3.347656 7.894531 -2.601562 7.5625 -1.96875 C 7.226562 -1.332031 6.757812 -0.84375 6.15625 -0.5 C 5.550781 -0.164062 4.851562 0 4.0625 0 L 0.984375 0 L 0.984375 -8.21875 L 3.703125 -8.21875 C 5.097656 -8.21875 6.171875 -7.867188 6.921875 -7.171875 C 7.679688 -6.472656 8.0625 -5.484375 8.0625 -4.203125 Z M 6.9375 -4.203125 C 6.9375 -5.210938 6.65625 -5.984375 6.09375 -6.515625 C 5.539062 -7.054688 4.734375 -7.328125 3.671875 -7.328125 L 2.09375 -7.328125 L 2.09375 -0.890625 L 3.921875 -0.890625 C 4.523438 -0.890625 5.054688 -1.019531 5.515625 -1.28125 C 5.972656 -1.550781 6.320312 -1.9375 6.5625 -2.4375 C 6.8125 -2.9375 6.9375 -3.523438 6.9375 -4.203125 Z M 6.9375 -4.203125 "></path>
</g>
<g id="glyph-4-7">
<path d="M 7.421875 -2.265625 C 7.421875 -1.503906 7.125 -0.914062 6.53125 -0.5 C 5.9375 -0.09375 5.101562 0.109375 4.03125 0.109375 C 2.019531 0.109375 0.859375 -0.582031 0.546875 -1.96875 L 1.625 -2.1875 C 1.75 -1.695312 2.007812 -1.332031 2.40625 -1.09375 C 2.8125 -0.863281 3.363281 -0.75 4.0625 -0.75 C 4.78125 -0.75 5.335938 -0.875 5.734375 -1.125 C 6.128906 -1.375 6.328125 -1.738281 6.328125 -2.21875 C 6.328125 -2.476562 6.265625 -2.691406 6.140625 -2.859375 C 6.015625 -3.023438 5.835938 -3.160156 5.609375 -3.265625 C 5.390625 -3.378906 5.125 -3.472656 4.8125 -3.546875 C 4.507812 -3.628906 4.175781 -3.710938 3.8125 -3.796875 C 3.15625 -3.941406 2.660156 -4.082031 2.328125 -4.21875 C 1.992188 -4.363281 1.726562 -4.523438 1.53125 -4.703125 C 1.332031 -4.878906 1.179688 -5.085938 1.078125 -5.328125 C 0.972656 -5.566406 0.921875 -5.835938 0.921875 -6.140625 C 0.921875 -6.847656 1.191406 -7.390625 1.734375 -7.765625 C 2.273438 -8.148438 3.046875 -8.34375 4.046875 -8.34375 C 4.984375 -8.34375 5.695312 -8.195312 6.1875 -7.90625 C 6.6875 -7.625 7.035156 -7.140625 7.234375 -6.453125 L 6.140625 -6.265625 C 6.015625 -6.703125 5.78125 -7.015625 5.4375 -7.203125 C 5.101562 -7.398438 4.632812 -7.5 4.03125 -7.5 C 3.375 -7.5 2.875 -7.390625 2.53125 -7.171875 C 2.1875 -6.960938 2.015625 -6.640625 2.015625 -6.203125 C 2.015625 -5.953125 2.082031 -5.742188 2.21875 -5.578125 C 2.351562 -5.410156 2.546875 -5.269531 2.796875 -5.15625 C 3.046875 -5.039062 3.550781 -4.898438 4.3125 -4.734375 C 4.5625 -4.671875 4.8125 -4.609375 5.0625 -4.546875 C 5.3125 -4.492188 5.550781 -4.425781 5.78125 -4.34375 C 6.007812 -4.257812 6.222656 -4.160156 6.421875 -4.046875 C 6.628906 -3.929688 6.804688 -3.789062 6.953125 -3.625 C 7.097656 -3.46875 7.210938 -3.273438 7.296875 -3.046875 C 7.378906 -2.828125 7.421875 -2.566406 7.421875 -2.265625 Z M 7.421875 -2.265625 "></path>
</g>
<g id="glyph-4-8">
<path d="M 1.109375 0 L 1.109375 -8.21875 L 2.21875 -8.21875 L 2.21875 0 Z M 1.109375 0 "></path>
</g>
<g id="glyph-4-9">
<path d="M 0.59375 -4.15625 C 0.59375 -5.488281 0.953125 -6.519531 1.671875 -7.25 C 2.390625 -7.976562 3.394531 -8.34375 4.6875 -8.34375 C 5.601562 -8.34375 6.34375 -8.1875 6.90625 -7.875 C 7.476562 -7.570312 7.914062 -7.082031 8.21875 -6.40625 L 7.15625 -6.09375 C 6.925781 -6.5625 6.601562 -6.898438 6.1875 -7.109375 C 5.78125 -7.328125 5.269531 -7.4375 4.65625 -7.4375 C 3.707031 -7.4375 2.984375 -7.148438 2.484375 -6.578125 C 1.984375 -6.003906 1.734375 -5.195312 1.734375 -4.15625 C 1.734375 -3.113281 2 -2.289062 2.53125 -1.6875 C 3.0625 -1.082031 3.800781 -0.78125 4.75 -0.78125 C 5.28125 -0.78125 5.78125 -0.863281 6.25 -1.03125 C 6.71875 -1.195312 7.09375 -1.421875 7.375 -1.703125 L 7.375 -3.1875 L 4.921875 -3.1875 L 4.921875 -4.109375 L 8.40625 -4.109375 L 8.40625 -1.28125 C 7.96875 -0.832031 7.429688 -0.488281 6.796875 -0.25 C 6.171875 -0.0078125 5.488281 0.109375 4.75 0.109375 C 3.882812 0.109375 3.140625 -0.0546875 2.515625 -0.390625 C 1.898438 -0.734375 1.425781 -1.226562 1.09375 -1.875 C 0.757812 -2.519531 0.59375 -3.28125 0.59375 -4.15625 Z M 0.59375 -4.15625 "></path>
</g>
<g id="glyph-4-10">
<path d="M 6.3125 0 L 1.921875 -7 L 1.9375 -6.4375 L 1.96875 -5.46875 L 1.96875 0 L 0.984375 0 L 0.984375 -8.21875 L 2.28125 -8.21875 L 6.71875 -1.171875 C 6.675781 -1.929688 6.65625 -2.484375 6.65625 -2.828125 L 6.65625 -8.21875 L 7.65625 -8.21875 L 7.65625 0 Z M 6.3125 0 "></path>
</g>
<g id="glyph-4-11">
<path d="M 4.53125 -3.40625 L 4.53125 0 L 3.421875 0 L 3.421875 -3.40625 L 0.265625 -8.21875 L 1.484375 -8.21875 L 3.984375 -4.3125 L 6.484375 -8.21875 L 7.703125 -8.21875 Z M 4.53125 -3.40625 "></path>
</g>
<g id="glyph-4-12">
<path d="M 4.203125 -7.3125 L 4.203125 0 L 3.09375 0 L 3.09375 -7.3125 L 0.265625 -7.3125 L 0.265625 -8.21875 L 7.03125 -8.21875 L 7.03125 -7.3125 Z M 4.203125 -7.3125 "></path>
</g>
<g id="glyph-5-0">
<path d="M 7.6875 -5.140625 C 7.6875 -3.398438 7.390625 -2.082031 6.796875 -1.1875 C 6.203125 -0.300781 5.3125 0.140625 4.125 0.140625 C 1.769531 0.140625 0.59375 -1.617188 0.59375 -5.140625 C 0.59375 -6.367188 0.71875 -7.375 0.96875 -8.15625 C 1.226562 -8.9375 1.613281 -9.507812 2.125 -9.875 C 2.644531 -10.25 3.328125 -10.4375 4.171875 -10.4375 C 5.390625 -10.4375 6.28125 -9.992188 6.84375 -9.109375 C 7.40625 -8.234375 7.6875 -6.910156 7.6875 -5.140625 Z M 5.640625 -5.140625 C 5.640625 -6.085938 5.59375 -6.820312 5.5 -7.34375 C 5.40625 -7.875 5.253906 -8.253906 5.046875 -8.484375 C 4.847656 -8.710938 4.554688 -8.828125 4.171875 -8.828125 C 3.753906 -8.828125 3.4375 -8.707031 3.21875 -8.46875 C 3.007812 -8.238281 2.859375 -7.863281 2.765625 -7.34375 C 2.679688 -6.820312 2.640625 -6.085938 2.640625 -5.140625 C 2.640625 -4.203125 2.6875 -3.46875 2.78125 -2.9375 C 2.875 -2.414062 3.023438 -2.039062 3.234375 -1.8125 C 3.441406 -1.582031 3.742188 -1.46875 4.140625 -1.46875 C 4.523438 -1.46875 4.820312 -1.585938 5.03125 -1.828125 C 5.25 -2.066406 5.40625 -2.453125 5.5 -2.984375 C 5.59375 -3.515625 5.640625 -4.234375 5.640625 -5.140625 Z M 5.640625 -5.140625 "></path>
</g>
<g id="glyph-5-1">
<path d="M 0.9375 0 L 0.9375 -1.53125 L 3.484375 -1.53125 L 3.484375 -8.53125 L 1.015625 -7 L 1.015625 -8.609375 L 3.59375 -10.28125 L 5.53125 -10.28125 L 5.53125 -1.53125 L 7.890625 -1.53125 L 7.890625 0 Z M 0.9375 0 "></path>
</g>
</g>
<clipPath id="clip-0">
<path clip-rule="nonzero" d="M 5 5 L 1435 5 L 1435 809.988281 L 5 809.988281 Z M 5 5 "></path>
</clipPath>
<clipPath id="clip-1">
<path clip-rule="nonzero" d="M 5 5 L 1439.988281 5 L 1439.988281 809.988281 L 5 809.988281 Z M 5 5 "></path>
</clipPath>
</defs>
<rect x="-144" y="-81" width="1728" height="972" fill="rgb(12.939453%, 12.939453%, 10.978699%)" fill-opacity="1"></rect>
<g clip-path="url(#clip-0)">
<path fill-rule="nonzero" fill="rgb(12.939453%, 12.939453%, 10.978699%)" fill-opacity="1" d="M 5.976562 5.976562 L 1434.023438 5.976562 L 1434.023438 810.375 L 5.976562 810.375 Z M 5.976562 5.976562 "></path>
<path fill-rule="nonzero" fill="rgb(12.939453%, 12.939453%, 10.978699%)" fill-opacity="1" d="M 5.976562 5.976562 L 1434.023438 5.976562 L 1434.023438 810.375 L 5.976562 810.375 Z M 5.976562 5.976562 "></path>
</g>
<g clip-path="url(#clip-1)">
<path fill-rule="nonzero" fill="rgb(17.248535%, 17.248535%, 14.509583%)" fill-opacity="1" d="M 5.976562 5.976562 L 1440 5.976562 L 1440 810.375 L 5.976562 810.375 Z M 5.976562 5.976562 "></path>
</g>
<g fill="rgb(98.039246%, 98.039246%, 97.648621%)" fill-opacity="1">
<use xlink:href="#glyph-0-0" x="80.663889" y="104.564301"></use>
</g>
<g fill="rgb(98.039246%, 98.039246%, 97.648621%)" fill-opacity="1">
<use xlink:href="#glyph-0-1" x="99.963469" y="104.564301"></use>
</g>
<g fill="rgb(98.039246%, 98.039246%, 97.648621%)" fill-opacity="1">
<use xlink:href="#glyph-0-2" x="120.856749" y="104.564301"></use>
</g>
<g fill="rgb(98.039246%, 98.039246%, 97.648621%)" fill-opacity="1">
<use xlink:href="#glyph-0-3" x="141.75003" y="104.564301"></use>
</g>
<g fill="rgb(79.998779%, 76.078796%, 56.469727%)" fill-opacity="1">
<use xlink:href="#glyph-1-0" x="80.663889" y="255.43565"></use>
</g>
<g fill="rgb(79.998779%, 76.078796%, 56.469727%)" fill-opacity="1">
<use xlink:href="#glyph-1-1" x="90.373432" y="255.43565"></use>
</g>
<g fill="rgb(79.998779%, 76.078796%, 56.469727%)" fill-opacity="1">
<use xlink:href="#glyph-1-0" x="95.102749" y="255.43565"></use>
</g>
<g fill="rgb(79.998779%, 76.078796%, 56.469727%)" fill-opacity="1">
<use xlink:href="#glyph-1-2" x="104.812291" y="255.43565"></use>
</g>
<g fill="rgb(79.998779%, 76.078796%, 56.469727%)" fill-opacity="1">
<use xlink:href="#glyph-1-3" x="110.539404" y="255.43565"></use>
</g>
<g fill="rgb(79.998779%, 76.078796%, 56.469727%)" fill-opacity="1">
<use xlink:href="#glyph-1-4" x="121.255494" y="255.43565"></use>
</g>
<g fill="rgb(79.998779%, 76.078796%, 56.469727%)" fill-opacity="1">
<use xlink:href="#glyph-1-5" x="136.934305" y="255.43565"></use>
</g>
<g fill="rgb(79.998779%, 76.078796%, 56.469727%)" fill-opacity="1">
<use xlink:href="#glyph-1-6" x="147.650395" y="255.43565"></use>
</g>
<g fill="rgb(79.998779%, 76.078796%, 56.469727%)" fill-opacity="1">
<use xlink:href="#glyph-1-7" x="153.377508" y="255.43565"></use>
</g>
<g fill="rgb(79.998779%, 76.078796%, 56.469727%)" fill-opacity="1">
<use xlink:href="#glyph-1-3" x="164.093599" y="255.43565"></use>
</g>
<g fill="rgb(79.998779%, 76.078796%, 56.469727%)" fill-opacity="1">
<use xlink:href="#glyph-1-6" x="174.809689" y="255.43565"></use>
</g>
<g fill="rgb(79.998779%, 76.078796%, 56.469727%)" fill-opacity="1">
<use xlink:href="#glyph-1-3" x="180.536802" y="255.43565"></use>
</g>
<g fill="rgb(79.998779%, 76.078796%, 56.469727%)" fill-opacity="1">
<use xlink:href="#glyph-1-8" x="191.252892" y="255.43565"></use>
</g>
<g fill="rgb(79.998779%, 76.078796%, 56.469727%)" fill-opacity="1">
<use xlink:href="#glyph-1-4" x="197.969048" y="255.43565"></use>
</g>
<g fill="rgb(79.998779%, 76.078796%, 56.469727%)" fill-opacity="1">
<use xlink:href="#glyph-1-5" x="213.647858" y="255.43565"></use>
</g>
<g fill="rgb(79.998779%, 76.078796%, 56.469727%)" fill-opacity="1">
<use xlink:href="#glyph-1-1" x="224.363949" y="255.43565"></use>
</g>
<g fill="rgb(79.998779%, 76.078796%, 56.469727%)" fill-opacity="1">
<use xlink:href="#glyph-1-9" x="229.093266" y="255.43565"></use>
</g>
<g fill="rgb(79.998779%, 76.078796%, 56.469727%)" fill-opacity="1">
<use xlink:href="#glyph-1-6" x="233.822583" y="255.43565"></use>
</g>
<g fill="rgb(79.998779%, 76.078796%, 56.469727%)" fill-opacity="1">
<use xlink:href="#glyph-1-4" x="239.549696" y="255.43565"></use>
</g>
<g fill="rgb(79.998779%, 76.078796%, 56.469727%)" fill-opacity="1">
<use xlink:href="#glyph-1-5" x="255.228507" y="255.43565"></use>
</g>
<g fill="rgb(79.998779%, 76.078796%, 56.469727%)" fill-opacity="1">
<use xlink:href="#glyph-1-10" x="265.944597" y="255.43565"></use>
</g>
<g fill="rgb(79.998779%, 76.078796%, 56.469727%)" fill-opacity="1">
<use xlink:href="#glyph-1-11" x="272.660753" y="255.43565"></use>
</g>
<g fill="rgb(79.998779%, 76.078796%, 56.469727%)" fill-opacity="1">
<use xlink:href="#glyph-1-3" x="282.370295" y="255.43565"></use>
</g>
<g fill="rgb(79.998779%, 76.078796%, 56.469727%)" fill-opacity="1">
<use xlink:href="#glyph-1-2" x="293.086385" y="255.43565"></use>
</g>
<g fill="rgb(79.998779%, 76.078796%, 56.469727%)" fill-opacity="1">
<use xlink:href="#glyph-1-1" x="298.813498" y="255.43565"></use>
</g>
<g fill="rgb(79.998779%, 76.078796%, 56.469727%)" fill-opacity="1">
<use xlink:href="#glyph-1-12" x="303.542816" y="255.43565"></use>
</g>
<g fill="rgb(79.998779%, 76.078796%, 56.469727%)" fill-opacity="1">
<use xlink:href="#glyph-1-13" x="314.258906" y="255.43565"></use>
</g>
<g fill="rgb(98.039246%, 98.039246%, 97.648621%)" fill-opacity="1">
<use xlink:href="#glyph-2-0" x="80.663889" y="351.784184"></use>
</g>
<g fill="rgb(98.039246%, 98.039246%, 97.648621%)" fill-opacity="1">
<use xlink:href="#glyph-2-1" x="133.771701" y="351.784184"></use>
</g>
<g fill="rgb(98.039246%, 98.039246%, 97.648621%)" fill-opacity="1">
<use xlink:href="#glyph-2-2" x="173.984027" y="351.784184"></use>
</g>
<g fill="rgb(98.039246%, 98.039246%, 97.648621%)" fill-opacity="1">
<use xlink:href="#glyph-2-3" x="235.701473" y="351.784184"></use>
</g>
<g fill="rgb(98.039246%, 98.039246%, 97.648621%)" fill-opacity="1">
<use xlink:href="#glyph-2-4" x="275.913799" y="351.784184"></use>
</g>
<g fill="rgb(98.039246%, 98.039246%, 97.648621%)" fill-opacity="1">
<use xlink:href="#glyph-2-5" x="316.126125" y="351.784184"></use>
</g>
<g fill="rgb(98.039246%, 98.039246%, 97.648621%)" fill-opacity="1">
<use xlink:href="#glyph-2-6" x="330.395768" y="351.784184"></use>
</g>
<g fill="rgb(98.039246%, 98.039246%, 97.648621%)" fill-opacity="1">
<use xlink:href="#glyph-2-7" x="366.246385" y="351.784184"></use>
</g>
<g fill="rgb(98.039246%, 98.039246%, 97.648621%)" fill-opacity="1">
<use xlink:href="#glyph-2-8" x="406.458712" y="351.784184"></use>
</g>
<g fill="rgb(98.039246%, 98.039246%, 97.648621%)" fill-opacity="1">
<use xlink:href="#glyph-2-9" x="442.309329" y="351.784184"></use>
</g>
<g fill="rgb(98.039246%, 98.039246%, 97.648621%)" fill-opacity="1">
<use xlink:href="#glyph-2-1" x="482.521655" y="351.784184"></use>
</g>
<g fill="rgb(98.039246%, 98.039246%, 97.648621%)" fill-opacity="1">
<use xlink:href="#glyph-2-10" x="522.733981" y="351.784184"></use>
</g>
<g fill="rgb(98.039246%, 98.039246%, 97.648621%)" fill-opacity="1">
<use xlink:href="#glyph-2-11" x="541.327404" y="351.784184"></use>
</g>
<g fill="rgb(98.039246%, 98.039246%, 97.648621%)" fill-opacity="1">
<use xlink:href="#glyph-2-3" x="581.539731" y="351.784184"></use>
</g>
<g fill="rgb(98.039246%, 98.039246%, 97.648621%)" fill-opacity="1">
<use xlink:href="#glyph-2-12" x="621.752057" y="351.784184"></use>
</g>
<g fill="rgb(98.039246%, 98.039246%, 97.648621%)" fill-opacity="1">
<use xlink:href="#glyph-2-13" x="80.663889" y="430.954298"></use>
</g>
<g fill="rgb(98.039246%, 98.039246%, 97.648621%)" fill-opacity="1">
<use xlink:href="#glyph-2-3" x="116.514507" y="430.954298"></use>
</g>
<g fill="rgb(98.039246%, 98.039246%, 97.648621%)" fill-opacity="1">
<use xlink:href="#glyph-2-13" x="156.726833" y="430.954298"></use>
</g>
<g fill="rgb(98.039246%, 98.039246%, 97.648621%)" fill-opacity="1">
<use xlink:href="#glyph-2-14" x="192.577451" y="430.954298"></use>
</g>
<g fill="rgb(98.039246%, 98.039246%, 97.648621%)" fill-opacity="1">
<use xlink:href="#glyph-2-12" x="211.170874" y="430.954298"></use>
</g>
<g fill="rgb(98.039246%, 98.039246%, 97.648621%)" fill-opacity="1">
<use xlink:href="#glyph-2-4" x="251.3832" y="430.954298"></use>
</g>
<g fill="rgb(98.039246%, 98.039246%, 97.648621%)" fill-opacity="1">
<use xlink:href="#glyph-2-14" x="291.595526" y="430.954298"></use>
</g>
<g fill="rgb(98.039246%, 98.039246%, 97.648621%)" fill-opacity="1">
<use xlink:href="#glyph-2-7" x="310.188949" y="430.954298"></use>
</g>
<g fill="rgb(98.039246%, 98.039246%, 97.648621%)" fill-opacity="1">
<use xlink:href="#glyph-2-10" x="350.401275" y="430.954298"></use>
</g>
<g fill="rgb(98.039246%, 98.039246%, 97.648621%)" fill-opacity="1">
<use xlink:href="#glyph-2-6" x="368.994698" y="430.954298"></use>
</g>
<g fill="rgb(98.039246%, 98.039246%, 97.648621%)" fill-opacity="1">
<use xlink:href="#glyph-2-1" x="404.845316" y="430.954298"></use>
</g>
<g fill="rgb(98.039246%, 98.039246%, 97.648621%)" fill-opacity="1">
<use xlink:href="#glyph-2-4" x="445.057642" y="430.954298"></use>
</g>
<g fill="rgb(98.039246%, 98.039246%, 97.648621%)" fill-opacity="1">
<use xlink:href="#glyph-2-15" x="485.269968" y="430.954298"></use>
</g>
<g fill="rgb(98.039246%, 98.039246%, 97.648621%)" fill-opacity="1">
<use xlink:href="#glyph-2-5" x="503.863391" y="430.954298"></use>
</g>
<g fill="rgb(98.039246%, 98.039246%, 97.648621%)" fill-opacity="1">
<use xlink:href="#glyph-2-7" x="518.133034" y="430.954298"></use>
</g>
<g fill="rgb(98.039246%, 98.039246%, 97.648621%)" fill-opacity="1">
<use xlink:href="#glyph-2-4" x="558.34536" y="430.954298"></use>
</g>
<g fill="rgb(98.039246%, 98.039246%, 97.648621%)" fill-opacity="1">
<use xlink:href="#glyph-2-8" x="598.557686" y="430.954298"></use>
</g>
<g fill="rgb(98.039246%, 98.039246%, 97.648621%)" fill-opacity="1">
<use xlink:href="#glyph-2-7" x="634.408304" y="430.954298"></use>
</g>
<g fill="rgb(70.199585%, 70.199585%, 65.879822%)" fill-opacity="1">
<use xlink:href="#glyph-3-0" x="80.663889" y="503.402421"></use>
<use xlink:href="#glyph-3-1" x="97.601614" y="503.402421"></use>
<use xlink:href="#glyph-3-2" x="110.298708" y="503.402421"></use>
<use xlink:href="#glyph-3-3" x="117.354026" y="503.402421"></use>
<use xlink:href="#glyph-3-4" x="125.810489" y="503.402421"></use>
<use xlink:href="#glyph-3-2" x="139.933526" y="503.402421"></use>
<use xlink:href="#glyph-3-4" x="146.988845" y="503.402421"></use>
<use xlink:href="#glyph-3-3" x="161.111881" y="503.402421"></use>
<use xlink:href="#glyph-3-5" x="169.568344" y="503.402421"></use>
<use xlink:href="#glyph-3-6" x="183.691381" y="503.402421"></use>
<use xlink:href="#glyph-3-7" x="190.746699" y="503.402421"></use>
<use xlink:href="#glyph-3-8" x="203.443793" y="503.402421"></use>
<use xlink:href="#glyph-3-9" x="217.56683" y="503.402421"></use>
<use xlink:href="#glyph-3-10" x="238.720386" y="503.402421"></use>
<use xlink:href="#glyph-3-11" x="252.843423" y="503.402421"></use>
<use xlink:href="#glyph-3-12" x="258.485198" y="503.402421"></use>
<use xlink:href="#glyph-3-2" x="272.608235" y="503.402421"></use>
<use xlink:href="#glyph-3-5" x="279.663553" y="503.402421"></use>
<use xlink:href="#glyph-3-6" x="293.78659" y="503.402421"></use>
<use xlink:href="#glyph-3-13" x="300.841909" y="503.402421"></use>
<use xlink:href="#glyph-3-12" x="314.964946" y="503.402421"></use>
<use xlink:href="#glyph-3-6" x="329.087982" y="503.402421"></use>
<use xlink:href="#glyph-3-12" x="336.143301" y="503.402421"></use>
<use xlink:href="#glyph-3-14" x="350.266338" y="503.402421"></use>
<use xlink:href="#glyph-3-9" x="358.7228" y="503.402421"></use>
<use xlink:href="#glyph-3-5" x="379.876357" y="503.402421"></use>
<use xlink:href="#glyph-3-15" x="393.999394" y="503.402421"></use>
<use xlink:href="#glyph-3-11" x="399.641169" y="503.402421"></use>
<use xlink:href="#glyph-3-6" x="405.282944" y="503.402421"></use>
<use xlink:href="#glyph-3-9" x="412.338262" y="503.402421"></use>
<use xlink:href="#glyph-3-5" x="433.491819" y="503.402421"></use>
<use xlink:href="#glyph-3-3" x="447.614856" y="503.402421"></use>
<use xlink:href="#glyph-3-16" x="456.071318" y="503.402421"></use>
<use xlink:href="#glyph-3-12" x="468.768412" y="503.402421"></use>
<use xlink:href="#glyph-3-2" x="482.891449" y="503.402421"></use>
<use xlink:href="#glyph-3-15" x="489.946767" y="503.402421"></use>
<use xlink:href="#glyph-3-17" x="495.588543" y="503.402421"></use>
<use xlink:href="#glyph-3-18" x="509.711579" y="503.402421"></use>
<use xlink:href="#glyph-3-6" x="523.834616" y="503.402421"></use>
<use xlink:href="#glyph-3-10" x="530.889935" y="503.402421"></use>
<use xlink:href="#glyph-3-5" x="545.012971" y="503.402421"></use>
<use xlink:href="#glyph-3-3" x="559.136008" y="503.402421"></use>
<use xlink:href="#glyph-3-5" x="567.592471" y="503.402421"></use>
<use xlink:href="#glyph-3-6" x="581.715508" y="503.402421"></use>
<use xlink:href="#glyph-3-5" x="588.770826" y="503.402421"></use>
<use xlink:href="#glyph-3-6" x="602.893863" y="503.402421"></use>
<use xlink:href="#glyph-3-19" x="609.949182" y="503.402421"></use>
<use xlink:href="#glyph-3-12" x="625.460963" y="503.402421"></use>
<use xlink:href="#glyph-3-8" x="639.584" y="503.402421"></use>
<use xlink:href="#glyph-3-9" x="653.707037" y="503.402421"></use>
<use xlink:href="#glyph-3-20" x="674.860593" y="503.402421"></use>
<use xlink:href="#glyph-3-6" x="681.915912" y="503.402421"></use>
<use xlink:href="#glyph-3-21" x="688.97123" y="503.402421"></use>
<use xlink:href="#glyph-3-4" x="703.094267" y="503.402421"></use>
<use xlink:href="#glyph-3-5" x="717.217304" y="503.402421"></use>
<use xlink:href="#glyph-3-2" x="731.34034" y="503.402421"></use>
<use xlink:href="#glyph-3-3" x="738.395659" y="503.402421"></use>
<use xlink:href="#glyph-3-8" x="746.852122" y="503.402421"></use>
<use xlink:href="#glyph-3-6" x="760.975159" y="503.402421"></use>
<use xlink:href="#glyph-3-2" x="768.030477" y="503.402421"></use>
<use xlink:href="#glyph-3-15" x="775.085796" y="503.402421"></use>
<use xlink:href="#glyph-3-10" x="780.727571" y="503.402421"></use>
<use xlink:href="#glyph-3-8" x="794.850608" y="503.402421"></use>
<use xlink:href="#glyph-3-1" x="808.973644" y="503.402421"></use>
<use xlink:href="#glyph-3-6" x="821.670738" y="503.402421"></use>
<use xlink:href="#glyph-3-13" x="828.726057" y="503.402421"></use>
<use xlink:href="#glyph-3-12" x="842.849094" y="503.402421"></use>
</g>
<g fill="rgb(70.199585%, 70.199585%, 65.879822%)" fill-opacity="1">
<use xlink:href="#glyph-3-9" x="80.663889" y="539.999926"></use>
<use xlink:href="#glyph-3-12" x="101.817446" y="539.999926"></use>
<use xlink:href="#glyph-3-17" x="115.940483" y="539.999926"></use>
<use xlink:href="#glyph-3-1" x="130.063519" y="539.999926"></use>
<use xlink:href="#glyph-3-5" x="142.760613" y="539.999926"></use>
<use xlink:href="#glyph-3-18" x="156.88365" y="539.999926"></use>
<use xlink:href="#glyph-3-12" x="171.006687" y="539.999926"></use>
<use xlink:href="#glyph-3-9" x="185.129723" y="539.999926"></use>
<use xlink:href="#glyph-3-22" x="206.28328" y="539.999926"></use>
<use xlink:href="#glyph-3-6" x="213.338598" y="539.999926"></use>
<use xlink:href="#glyph-3-23" x="220.393917" y="539.999926"></use>
<use xlink:href="#glyph-3-15" x="234.516954" y="539.999926"></use>
<use xlink:href="#glyph-3-23" x="240.158729" y="539.999926"></use>
<use xlink:href="#glyph-3-11" x="254.281766" y="539.999926"></use>
<use xlink:href="#glyph-3-15" x="259.923541" y="539.999926"></use>
<use xlink:href="#glyph-3-8" x="265.565316" y="539.999926"></use>
<use xlink:href="#glyph-3-2" x="279.688352" y="539.999926"></use>
<use xlink:href="#glyph-3-12" x="286.743671" y="539.999926"></use>
<use xlink:href="#glyph-3-7" x="300.866708" y="539.999926"></use>
<use xlink:href="#glyph-3-5" x="313.563802" y="539.999926"></use>
<use xlink:href="#glyph-3-6" x="327.686838" y="539.999926"></use>
<use xlink:href="#glyph-3-13" x="334.742157" y="539.999926"></use>
<use xlink:href="#glyph-3-12" x="348.865194" y="539.999926"></use>
<use xlink:href="#glyph-3-6" x="362.98823" y="539.999926"></use>
<use xlink:href="#glyph-3-23" x="370.043549" y="539.999926"></use>
<use xlink:href="#glyph-3-11" x="384.166586" y="539.999926"></use>
<use xlink:href="#glyph-3-8" x="389.808361" y="539.999926"></use>
<use xlink:href="#glyph-3-7" x="403.931398" y="539.999926"></use>
<use xlink:href="#glyph-3-8" x="416.628491" y="539.999926"></use>
<use xlink:href="#glyph-3-1" x="430.751528" y="539.999926"></use>
<use xlink:href="#glyph-3-6" x="443.448622" y="539.999926"></use>
<use xlink:href="#glyph-3-9" x="450.50394" y="539.999926"></use>
<use xlink:href="#glyph-3-8" x="471.657497" y="539.999926"></use>
<use xlink:href="#glyph-3-13" x="485.780534" y="539.999926"></use>
<use xlink:href="#glyph-3-4" x="499.90357" y="539.999926"></use>
<use xlink:href="#glyph-3-11" x="514.026607" y="539.999926"></use>
<use xlink:href="#glyph-3-5" x="519.668382" y="539.999926"></use>
<use xlink:href="#glyph-3-3" x="533.791419" y="539.999926"></use>
<use xlink:href="#glyph-3-12" x="542.247882" y="539.999926"></use>
<use xlink:href="#glyph-3-1" x="556.370918" y="539.999926"></use>
<use xlink:href="#glyph-3-6" x="569.068012" y="539.999926"></use>
<use xlink:href="#glyph-3-12" x="576.123331" y="539.999926"></use>
<use xlink:href="#glyph-3-6" x="590.246367" y="539.999926"></use>
<use xlink:href="#glyph-3-24" x="597.301686" y="539.999926"></use>
<use xlink:href="#glyph-3-4" x="604.357005" y="539.999926"></use>
<use xlink:href="#glyph-3-17" x="618.480041" y="539.999926"></use>
<use xlink:href="#glyph-3-13" x="632.603078" y="539.999926"></use>
<use xlink:href="#glyph-3-5" x="646.726115" y="539.999926"></use>
<use xlink:href="#glyph-3-25" x="660.849152" y="539.999926"></use>
<use xlink:href="#glyph-3-26" x="673.546245" y="539.999926"></use>
<use xlink:href="#glyph-3-8" x="687.669282" y="539.999926"></use>
<use xlink:href="#glyph-3-6" x="701.792319" y="539.999926"></use>
<use xlink:href="#glyph-3-27" x="708.847638" y="539.999926"></use>
<use xlink:href="#glyph-3-15" x="721.544731" y="539.999926"></use>
<use xlink:href="#glyph-3-1" x="727.186506" y="539.999926"></use>
<use xlink:href="#glyph-3-4" x="739.8836" y="539.999926"></use>
<use xlink:href="#glyph-3-5" x="754.006637" y="539.999926"></use>
<use xlink:href="#glyph-3-11" x="768.129674" y="539.999926"></use>
</g>
<g fill="rgb(70.199585%, 70.199585%, 65.879822%)" fill-opacity="1">
<use xlink:href="#glyph-3-5" x="80.663889" y="577.34432"></use>
<use xlink:href="#glyph-3-10" x="94.786926" y="577.34432"></use>
<use xlink:href="#glyph-3-11" x="108.909963" y="577.34432"></use>
<use xlink:href="#glyph-3-15" x="114.551738" y="577.34432"></use>
<use xlink:href="#glyph-3-7" x="120.193513" y="577.34432"></use>
<use xlink:href="#glyph-3-5" x="132.890607" y="577.34432"></use>
<use xlink:href="#glyph-3-13" x="147.013643" y="577.34432"></use>
<use xlink:href="#glyph-3-5" x="161.13668" y="577.34432"></use>
<use xlink:href="#glyph-3-28" x="175.259717" y="577.34432"></use>
</g>
<g fill="rgb(42.349243%, 39.99939%, 30.589294%)" fill-opacity="1">
<use xlink:href="#glyph-4-0" x="31.36929" y="790.207361"></use>
</g>
<g fill="rgb(42.349243%, 39.99939%, 30.589294%)" fill-opacity="1">
<use xlink:href="#glyph-4-1" x="40.102976" y="790.207361"></use>
</g>
<g fill="rgb(42.349243%, 39.99939%, 30.589294%)" fill-opacity="1">
<use xlink:href="#glyph-4-2" x="49.507693" y="790.207361"></use>
</g>
<g fill="rgb(42.349243%, 39.99939%, 30.589294%)" fill-opacity="1">
<use xlink:href="#glyph-4-3" x="60.236969" y="790.207361"></use>
</g>
<g fill="rgb(42.349243%, 39.99939%, 30.589294%)" fill-opacity="1">
<use xlink:href="#glyph-4-4" x="71.625607" y="790.207361"></use>
</g>
<g fill="rgb(42.349243%, 39.99939%, 30.589294%)" fill-opacity="1">
<use xlink:href="#glyph-4-5" x="76.379781" y="790.207361"></use>
</g>
<g fill="rgb(42.349243%, 39.99939%, 30.589294%)" fill-opacity="1">
<use xlink:href="#glyph-4-4" x="81.793316" y="790.207361"></use>
</g>
<g fill="rgb(42.349243%, 39.99939%, 30.589294%)" fill-opacity="1">
<use xlink:href="#glyph-4-6" x="86.547489" y="790.207361"></use>
</g>
<g fill="rgb(42.349243%, 39.99939%, 30.589294%)" fill-opacity="1">
<use xlink:href="#glyph-4-1" x="96.611568" y="790.207361"></use>
</g>
<g fill="rgb(42.349243%, 39.99939%, 30.589294%)" fill-opacity="1">
<use xlink:href="#glyph-4-7" x="106.016286" y="790.207361"></use>
</g>
<g fill="rgb(42.349243%, 39.99939%, 30.589294%)" fill-opacity="1">
<use xlink:href="#glyph-4-8" x="115.421003" y="790.207361"></use>
</g>
<g fill="rgb(42.349243%, 39.99939%, 30.589294%)" fill-opacity="1">
<use xlink:href="#glyph-4-9" x="120.175176" y="790.207361"></use>
</g>
<g fill="rgb(42.349243%, 39.99939%, 30.589294%)" fill-opacity="1">
<use xlink:href="#glyph-4-10" x="130.904453" y="790.207361"></use>
</g>
<g fill="rgb(42.349243%, 39.99939%, 30.589294%)" fill-opacity="1">
<use xlink:href="#glyph-4-4" x="140.968532" y="790.207361"></use>
</g>
<g fill="rgb(42.349243%, 39.99939%, 30.589294%)" fill-opacity="1">
<use xlink:href="#glyph-4-7" x="145.722705" y="790.207361"></use>
</g>
<g fill="rgb(42.349243%, 39.99939%, 30.589294%)" fill-opacity="1">
<use xlink:href="#glyph-4-11" x="155.127422" y="790.207361"></use>
</g>
<g fill="rgb(42.349243%, 39.99939%, 30.589294%)" fill-opacity="1">
<use xlink:href="#glyph-4-7" x="164.53214" y="790.207361"></use>
</g>
<g fill="rgb(42.349243%, 39.99939%, 30.589294%)" fill-opacity="1">
<use xlink:href="#glyph-4-12" x="173.936857" y="790.207361"></use>
</g>
<g fill="rgb(42.349243%, 39.99939%, 30.589294%)" fill-opacity="1">
<use xlink:href="#glyph-4-1" x="182.670542" y="790.207361"></use>
</g>
<g fill="rgb(42.349243%, 39.99939%, 30.589294%)" fill-opacity="1">
<use xlink:href="#glyph-4-3" x="192.075259" y="790.207361"></use>
</g>
<g fill="rgb(42.349243%, 39.99939%, 30.589294%)" fill-opacity="1">
<use xlink:href="#glyph-5-0" x="1395.595005" y="789.460473"></use>
</g>
<g fill="rgb(42.349243%, 39.99939%, 30.589294%)" fill-opacity="1">
<use xlink:href="#glyph-5-1" x="1405.097687" y="789.460473"></use>
</g>
</svg>