<svg xmlns="http://www.w3.org/2000/svg" viewBox="0 0 24 24" width="24" height="24" fill="none" stroke="currentColor" stroke-width="1.5" stroke-linecap="round" stroke-linejoin="round"><g transform="translate(-214.953 -301.359) scale(1.45833)"><path d="M150.70 210.61L160.55 210.61C160.72 210.61 160.89 210.64 161.05 210.71C161.21 210.78 161.35 210.87 161.47 210.99C161.60 211.12 161.69 211.26 161.76 211.42C161.83 211.58 161.86 211.75 161.86 211.92L161.86 217.83C161.86 218.00 161.83 218.17 161.76 218.33C161.69 218.49 161.60 218.63 161.47 218.76C161.35 218.88 161.21 218.97 161.05 219.04C160.89 219.11 160.72 219.14 160.55 219.14L150.70 219.14C150.53 219.14 150.36 219.11 150.20 219.04C150.04 218.97 149.90 218.88 149.78 218.76C149.65 218.63 149.56 218.49 149.49 218.33C149.42 218.17 149.39 218.00 149.39 217.83L149.39 211.92C149.39 211.75 149.42 211.58 149.49 211.42C149.56 211.26 149.65 211.12 149.78 210.99C149.90 210.87 150.04 210.78 150.20 210.71C150.36 210.64 150.53 210.61 150.70 210.61Z"></path><path d="M149.39 213.56L161.86 213.56"></path></g></svg>