<svg xmlns="http://www.w3.org/2000/svg" viewBox="543.8 661.8 60.3 60.3" width="24" height="24" fill="#F6F5EF"><path d="M595.447 668H554.544C552.584 668 551 669.547 551 671.459V712.531C551 714.444 552.584 716 554.544 716H595.447C597.406 716 599 714.444 599 712.541V671.459C599 669.547 597.406 668 595.447 668ZM565.241 708.903H558.116V685.991H565.241V708.903ZM561.678 682.869C559.391 682.869 557.544 681.022 557.544 678.744C557.544 676.466 559.391 674.619 561.678 674.619C563.956 674.619 565.803 676.466 565.803 678.744C565.803 681.012 563.956 682.869 561.678 682.869ZM591.903 708.903H584.787V697.766C584.787 695.112 584.741 691.691 581.084 691.691C577.381 691.691 576.819 694.587 576.819 697.578V708.903H569.713V685.991H576.537V689.122H576.631C577.578 687.322 579.903 685.419 583.363 685.419C590.572 685.419 591.903 690.163 591.903 696.331V708.903Z"></path></svg>